<svg width="1440" height="54" viewBox="0 0 1440 54" fill="none" xmlns="http://www.w3.org/2000/svg">
<path d="M1413.33 27C1413.33 41.7276 1425.27 53.6667 1440 53.6667C1454.73 53.6667 1466.67 41.7276 1466.67 27C1466.67 12.2724 1454.73 0.333334 1440 0.333334C1425.27 0.333334 1413.33 12.2724 1413.33 27ZM10 32C12.7614 32 15 29.7614 15 27C15 24.2386 12.7614 22 10 22L10 32ZM30 22C27.2386 22 25 24.2386 25 27C25 29.7614 27.2386 32 30 32V22ZM50 32C52.7614 32 55 29.7614 55 27C55 24.2386 52.7614 22 50 22V32ZM70 22C67.2386 22 65 24.2386 65 27C65 29.7614 67.2386 32 70 32V22ZM90 32C92.7614 32 95 29.7614 95 27C95 24.2386 92.7614 22 90 22V32ZM110 22C107.239 22 105 24.2386 105 27C105 29.7614 107.239 32 110 32V22ZM130 32C132.761 32 135 29.7614 135 27C135 24.2386 132.761 22 130 22V32ZM150 22C147.239 22 145 24.2386 145 27C145 29.7614 147.239 32 150 32V22ZM170 32C172.761 32 175 29.7614 175 27C175 24.2386 172.761 22 170 22V32ZM190 22C187.239 22 185 24.2386 185 27C185 29.7614 187.239 32 190 32V22ZM210 32C212.761 32 215 29.7614 215 27C215 24.2386 212.761 22 210 22V32ZM230 22C227.239 22 225 24.2386 225 27C225 29.7614 227.239 32 230 32V22ZM250 32C252.761 32 255 29.7614 255 27C255 24.2386 252.761 22 250 22V32ZM270 22C267.239 22 265 24.2386 265 27C265 29.7614 267.239 32 270 32V22ZM290 32C292.761 32 295 29.7614 295 27C295 24.2386 292.761 22 290 22V32ZM310 22C307.239 22 305 24.2386 305 27C305 29.7614 307.239 32 310 32V22ZM330 32C332.761 32 335 29.7614 335 27C335 24.2386 332.761 22 330 22V32ZM350 22C347.239 22 345 24.2386 345 27C345 29.7614 347.239 32 350 32V22ZM370 32C372.761 32 375 29.7614 375 27C375 24.2386 372.761 22 370 22V32ZM390 22C387.239 22 385 24.2386 385 27C385 29.7614 387.239 32 390 32V22ZM410 32C412.761 32 415 29.7614 415 27C415 24.2386 412.761 22 410 22V32ZM430 22C427.239 22 425 24.2386 425 27C425 29.7614 427.239 32 430 32V22ZM450 32C452.761 32 455 29.7614 455 27C455 24.2386 452.761 22 450 22V32ZM470 22C467.239 22 465 24.2386 465 27C465 29.7614 467.239 32 470 32V22ZM490 32C492.761 32 495 29.7614 495 27C495 24.2386 492.761 22 490 22V32ZM510 22C507.239 22 505 24.2386 505 27C505 29.7614 507.239 32 510 32V22ZM530 32C532.761 32 535 29.7614 535 27C535 24.2386 532.761 22 530 22V32ZM550 22C547.239 22 545 24.2386 545 27C545 29.7614 547.239 32 550 32V22ZM570 32C572.761 32 575 29.7614 575 27C575 24.2386 572.761 22 570 22V32ZM590 22C587.239 22 585 24.2386 585 27C585 29.7614 587.239 32 590 32V22ZM610 32C612.761 32 615 29.7614 615 27C615 24.2386 612.761 22 610 22V32ZM630 22C627.239 22 625 24.2386 625 27C625 29.7614 627.239 32 630 32V22ZM650 32C652.761 32 655 29.7614 655 27C655 24.2386 652.761 22 650 22V32ZM670 22C667.239 22 665 24.2386 665 27C665 29.7614 667.239 32 670 32V22ZM690 32C692.761 32 695 29.7614 695 27C695 24.2386 692.761 22 690 22V32ZM710 22C707.239 22 705 24.2386 705 27C705 29.7614 707.239 32 710 32V22ZM730 32C732.761 32 735 29.7614 735 27C735 24.2386 732.761 22 730 22V32ZM750 22C747.239 22 745 24.2386 745 27C745 29.7614 747.239 32 750 32V22ZM770 32C772.761 32 775 29.7614 775 27C775 24.2386 772.761 22 770 22V32ZM790 22C787.239 22 785 24.2386 785 27C785 29.7614 787.239 32 790 32V22ZM810 32C812.761 32 815 29.7614 815 27C815 24.2386 812.761 22 810 22V32ZM830 22C827.239 22 825 24.2386 825 27C825 29.7614 827.239 32 830 32V22ZM850 32C852.761 32 855 29.7614 855 27C855 24.2386 852.761 22 850 22V32ZM870 22C867.239 22 865 24.2386 865 27C865 29.7614 867.239 32 870 32V22ZM890 32C892.761 32 895 29.7614 895 27C895 24.2386 892.761 22 890 22V32ZM910 22C907.239 22 905 24.2386 905 27C905 29.7614 907.239 32 910 32V22ZM930 32C932.761 32 935 29.7614 935 27C935 24.2386 932.761 22 930 22V32ZM950 22C947.239 22 945 24.2386 945 27C945 29.7614 947.239 32 950 32V22ZM970 32C972.761 32 975 29.7614 975 27C975 24.2386 972.761 22 970 22V32ZM990 22C987.239 22 985 24.2386 985 27C985 29.7614 987.239 32 990 32V22ZM1010 32C1012.76 32 1015 29.7614 1015 27C1015 24.2386 1012.76 22 1010 22V32ZM1030 22C1027.24 22 1025 24.2386 1025 27C1025 29.7614 1027.24 32 1030 32V22ZM1050 32C1052.76 32 1055 29.7614 1055 27C1055 24.2386 1052.76 22 1050 22V32ZM1070 22C1067.24 22 1065 24.2386 1065 27C1065 29.7614 1067.24 32 1070 32V22ZM1090 32C1092.76 32 1095 29.7614 1095 27C1095 24.2386 1092.76 22 1090 22V32ZM1110 22C1107.24 22 1105 24.2386 1105 27C1105 29.7614 1107.24 32 1110 32V22ZM1130 32C1132.76 32 1135 29.7614 1135 27C1135 24.2386 1132.76 22 1130 22V32ZM1150 22C1147.24 22 1145 24.2386 1145 27C1145 29.7614 1147.24 32 1150 32V22ZM1170 32C1172.76 32 1175 29.7614 1175 27C1175 24.2386 1172.76 22 1170 22V32ZM1190 22C1187.24 22 1185 24.2386 1185 27C1185 29.7614 1187.24 32 1190 32V22ZM1210 32C1212.76 32 1215 29.7614 1215 27C1215 24.2386 1212.76 22 1210 22V32ZM1230 22C1227.24 22 1225 24.2386 1225 27C1225 29.7614 1227.24 32 1230 32V22ZM1250 32C1252.76 32 1255 29.7614 1255 27C1255 24.2386 1252.76 22 1250 22V32ZM1270 22C1267.24 22 1265 24.2386 1265 27C1265 29.7614 1267.24 32 1270 32V22ZM1290 32C1292.76 32 1295 29.7614 1295 27C1295 24.2386 1292.76 22 1290 22V32ZM1310 22C1307.24 22 1305 24.2386 1305 27C1305 29.7614 1307.24 32 1310 32V22ZM1330 32C1332.76 32 1335 29.7614 1335 27C1335 24.2386 1332.76 22 1330 22V32ZM1350 22C1347.24 22 1345 24.2386 1345 27C1345 29.7614 1347.24 32 1350 32V22ZM1370 32C1372.76 32 1375 29.7614 1375 27C1375 24.2386 1372.76 22 1370 22V32ZM1390 22C1387.24 22 1385 24.2386 1385 27C1385 29.7614 1387.24 32 1390 32V22ZM1410 32C1412.76 32 1415 29.7614 1415 27C1415 24.2386 1412.76 22 1410 22V32ZM1430 22C1427.24 22 1425 24.2386 1425 27C1425 29.7614 1427.24 32 1430 32V22ZM0 27L0 32L10 32L10 27L10 22L0 22L0 27ZM30 27V32L50 32V27V22L30 22V27ZM70 27V32L90 32V27V22L70 22V27ZM110 27V32L130 32V27V22L110 22V27ZM150 27V32L170 32V27V22L150 22V27ZM190 27V32L210 32V27V22L190 22V27ZM230 27V32L250 32V27V22L230 22V27ZM270 27V32L290 32V27V22L270 22V27ZM310 27V32L330 32V27V22L310 22V27ZM350 27V32L370 32V27V22L350 22V27ZM390 27V32L410 32V27V22L390 22V27ZM430 27V32L450 32V27V22L430 22V27ZM470 27V32L490 32V27V22L470 22V27ZM510 27V32L530 32V27V22L510 22V27ZM550 27V32L570 32V27V22L550 22V27ZM590 27V32L610 32V27V22L590 22V27ZM630 27V32L650 32V27V22L630 22V27ZM670 27V32L690 32V27V22L670 22V27ZM710 27V32L730 32V27V22L710 22V27ZM750 27V32L770 32V27V22L750 22V27ZM790 27V32L810 32V27V22L790 22V27ZM830 27V32L850 32V27V22L830 22V27ZM870 27V32L890 32V27V22L870 22V27ZM910 27V32L930 32V27V22L910 22V27ZM950 27V32L970 32V27V22L950 22V27ZM990 27V32L1010 32V27V22L990 22V27ZM1030 27V32L1050 32V27V22L1030 22V27ZM1070 27V32L1090 32V27V22L1070 22V27ZM1110 27V32L1130 32V27V22L1110 22V27ZM1150 27V32L1170 32V27V22L1150 22V27ZM1190 27V32L1210 32V27V22L1190 22V27ZM1230 27V32L1250 32V27V22L1230 22V27ZM1270 27V32L1290 32V27V22L1270 22V27ZM1310 27V32L1330 32V27V22L1310 22V27ZM1350 27V32L1370 32V27V22L1350 22V27ZM1390 27V32L1410 32V27V22L1390 22V27ZM1430 27V32L1440 32V27V22L1430 22V27Z" fill="#D23216"/>
</svg>
