<svg width="390" height="28" viewBox="0 0 390 28" fill="none" xmlns="http://www.w3.org/2000/svg">
<path d="M-13.3333 14C-13.3333 21.3638 -7.3638 27.3333 0 27.3333C7.3638 27.3333 13.3333 21.3638 13.3333 14C13.3333 6.6362 7.3638 0.666667 0 0.666667C-7.3638 0.666667 -13.3333 6.6362 -13.3333 14ZM4.875 16.5C6.25571 16.5 7.375 15.3807 7.375 14C7.375 12.6193 6.25571 11.5 4.875 11.5V16.5ZM14.625 11.5C13.2443 11.5 12.125 12.6193 12.125 14C12.125 15.3807 13.2443 16.5 14.625 16.5V11.5ZM24.375 16.5C25.7557 16.5 26.875 15.3807 26.875 14C26.875 12.6193 25.7557 11.5 24.375 11.5V16.5ZM34.125 11.5C32.7443 11.5 31.625 12.6193 31.625 14C31.625 15.3807 32.7443 16.5 34.125 16.5V11.5ZM43.875 16.5C45.2557 16.5 46.375 15.3807 46.375 14C46.375 12.6193 45.2557 11.5 43.875 11.5V16.5ZM53.625 11.5C52.2443 11.5 51.125 12.6193 51.125 14C51.125 15.3807 52.2443 16.5 53.625 16.5V11.5ZM63.375 16.5C64.7557 16.5 65.875 15.3807 65.875 14C65.875 12.6193 64.7557 11.5 63.375 11.5V16.5ZM73.125 11.5C71.7443 11.5 70.625 12.6193 70.625 14C70.625 15.3807 71.7443 16.5 73.125 16.5V11.5ZM82.875 16.5C84.2557 16.5 85.375 15.3807 85.375 14C85.375 12.6193 84.2557 11.5 82.875 11.5V16.5ZM92.625 11.5C91.2443 11.5 90.125 12.6193 90.125 14C90.125 15.3807 91.2443 16.5 92.625 16.5V11.5ZM102.375 16.5C103.756 16.5 104.875 15.3807 104.875 14C104.875 12.6193 103.756 11.5 102.375 11.5V16.5ZM112.125 11.5C110.744 11.5 109.625 12.6193 109.625 14C109.625 15.3807 110.744 16.5 112.125 16.5V11.5ZM121.875 16.5C123.256 16.5 124.375 15.3807 124.375 14C124.375 12.6193 123.256 11.5 121.875 11.5V16.5ZM131.625 11.5C130.244 11.5 129.125 12.6193 129.125 14C129.125 15.3807 130.244 16.5 131.625 16.5V11.5ZM141.375 16.5C142.756 16.5 143.875 15.3807 143.875 14C143.875 12.6193 142.756 11.5 141.375 11.5V16.5ZM151.125 11.5C149.744 11.5 148.625 12.6193 148.625 14C148.625 15.3807 149.744 16.5 151.125 16.5V11.5ZM160.875 16.5C162.256 16.5 163.375 15.3807 163.375 14C163.375 12.6193 162.256 11.5 160.875 11.5V16.5ZM170.625 11.5C169.244 11.5 168.125 12.6193 168.125 14C168.125 15.3807 169.244 16.5 170.625 16.5V11.5ZM180.375 16.5C181.756 16.5 182.875 15.3807 182.875 14C182.875 12.6193 181.756 11.5 180.375 11.5V16.5ZM190.125 11.5C188.744 11.5 187.625 12.6193 187.625 14C187.625 15.3807 188.744 16.5 190.125 16.5V11.5ZM199.875 16.5C201.256 16.5 202.375 15.3807 202.375 14C202.375 12.6193 201.256 11.5 199.875 11.5V16.5ZM209.625 11.5C208.244 11.5 207.125 12.6193 207.125 14C207.125 15.3807 208.244 16.5 209.625 16.5V11.5ZM219.375 16.5C220.756 16.5 221.875 15.3807 221.875 14C221.875 12.6193 220.756 11.5 219.375 11.5V16.5ZM229.125 11.5C227.744 11.5 226.625 12.6193 226.625 14C226.625 15.3807 227.744 16.5 229.125 16.5V11.5ZM238.875 16.5C240.256 16.5 241.375 15.3807 241.375 14C241.375 12.6193 240.256 11.5 238.875 11.5V16.5ZM248.625 11.5C247.244 11.5 246.125 12.6193 246.125 14C246.125 15.3807 247.244 16.5 248.625 16.5V11.5ZM258.375 16.5C259.756 16.5 260.875 15.3807 260.875 14C260.875 12.6193 259.756 11.5 258.375 11.5V16.5ZM268.125 11.5C266.744 11.5 265.625 12.6193 265.625 14C265.625 15.3807 266.744 16.5 268.125 16.5V11.5ZM277.875 16.5C279.256 16.5 280.375 15.3807 280.375 14C280.375 12.6193 279.256 11.5 277.875 11.5V16.5ZM287.625 11.5C286.244 11.5 285.125 12.6193 285.125 14C285.125 15.3807 286.244 16.5 287.625 16.5V11.5ZM297.375 16.5C298.756 16.5 299.875 15.3807 299.875 14C299.875 12.6193 298.756 11.5 297.375 11.5V16.5ZM307.125 11.5C305.744 11.5 304.625 12.6193 304.625 14C304.625 15.3807 305.744 16.5 307.125 16.5V11.5ZM316.875 16.5C318.256 16.5 319.375 15.3807 319.375 14C319.375 12.6193 318.256 11.5 316.875 11.5V16.5ZM326.625 11.5C325.244 11.5 324.125 12.6193 324.125 14C324.125 15.3807 325.244 16.5 326.625 16.5V11.5ZM336.375 16.5C337.756 16.5 338.875 15.3807 338.875 14C338.875 12.6193 337.756 11.5 336.375 11.5V16.5ZM346.125 11.5C344.744 11.5 343.625 12.6193 343.625 14C343.625 15.3807 344.744 16.5 346.125 16.5V11.5ZM355.875 16.5C357.256 16.5 358.375 15.3807 358.375 14C358.375 12.6193 357.256 11.5 355.875 11.5V16.5ZM365.625 11.5C364.244 11.5 363.125 12.6193 363.125 14C363.125 15.3807 364.244 16.5 365.625 16.5V11.5ZM375.375 16.5C376.756 16.5 377.875 15.3807 377.875 14C377.875 12.6193 376.756 11.5 375.375 11.5V16.5ZM385.125 11.5C383.744 11.5 382.625 12.6193 382.625 14C382.625 15.3807 383.744 16.5 385.125 16.5V11.5ZM0 14V16.5H4.875V14V11.5H0V14ZM14.625 14V16.5H24.375V14V11.5H14.625V14ZM34.125 14V16.5H43.875V14V11.5H34.125V14ZM53.625 14V16.5H63.375V14V11.5H53.625V14ZM73.125 14V16.5H82.875V14V11.5H73.125V14ZM92.625 14V16.5H102.375V14V11.5H92.625V14ZM112.125 14V16.5H121.875V14V11.5H112.125V14ZM131.625 14V16.5H141.375V14V11.5H131.625V14ZM151.125 14V16.5H160.875V14V11.5H151.125V14ZM170.625 14V16.5H180.375V14V11.5H170.625V14ZM190.125 14V16.5H199.875V14V11.5H190.125V14ZM209.625 14V16.5H219.375V14V11.5H209.625V14ZM229.125 14V16.5H238.875V14V11.5H229.125V14ZM248.625 14V16.5H258.375V14V11.5H248.625V14ZM268.125 14V16.5H277.875V14V11.5H268.125V14ZM287.625 14V16.5H297.375V14V11.5H287.625V14ZM307.125 14V16.5H316.875V14V11.5H307.125V14ZM326.625 14V16.5H336.375V14V11.5H326.625V14ZM346.125 14V16.5H355.875V14V11.5H346.125V14ZM365.625 14V16.5H375.375V14V11.5H365.625V14ZM385.125 14V16.5H390V14V11.5H385.125V14Z" fill="#D23216"/>
</svg>
