<svg width="110" height="101" viewBox="0 0 110 101" fill="none" xmlns="http://www.w3.org/2000/svg">
<g clip-path="url(#clip0_403_5397)">
<path d="M15.192 66.2309C14.9013 66.231 14.6148 66.1619 14.3558 66.0294L0.440463 58.8382C0.0114302 58.6167 -0.31275 58.2338 -0.461223 57.7732C-0.609695 57.3126 -0.570386 56.8117 -0.351885 56.3801L15.9953 23.9851C16.1038 23.77 16.2536 23.5785 16.4361 23.4216C16.6185 23.2647 16.83 23.1455 17.0585 23.0707C17.287 22.996 17.5279 22.9673 17.7675 22.9862C18.007 23.0052 18.2405 23.0713 18.4545 23.181L31.6926 29.9582C32.1176 30.1752 32.4411 30.5504 32.594 31.0036C32.7468 31.4568 32.7168 31.952 32.5105 32.3833L16.8388 65.185C16.7329 65.4056 16.5842 65.6028 16.4014 65.765C16.2187 65.9273 16.0055 66.0514 15.7744 66.1301C15.5868 66.1943 15.3902 66.2283 15.192 66.2309ZM3.72487 56.4131L14.3577 61.9081L28.4483 32.4181L18.4253 27.2894L3.72487 56.4131Z" fill="white"/>
<path d="M34.1058 40.7413C33.7917 40.7413 33.4829 40.6599 33.2094 40.5051L27.9039 37.5066C27.695 37.3886 27.5112 37.2305 27.3632 37.0413C27.2152 36.852 27.1057 36.6354 27.0411 36.4038C26.9765 36.1721 26.9581 35.93 26.9867 35.6911C27.0154 35.4523 27.0907 35.2215 27.2083 35.0119C27.3259 34.8022 27.4835 34.6179 27.6721 34.4694C27.8607 34.3208 28.0767 34.2111 28.3076 34.1462C28.5385 34.0814 28.7798 34.0629 29.0179 34.0917C29.2559 34.1205 29.486 34.196 29.6949 34.314L34.0766 36.7886C35.7872 35.7482 39.4897 33.5081 41.8595 32.1654C45.7281 29.9674 48.452 30.2696 51.5794 33.2425C51.9218 33.5786 52.1188 34.0362 52.1279 34.5168C52.137 34.9973 51.9576 35.4621 51.6282 35.8111C51.2988 36.1601 50.8459 36.3652 50.3672 36.3822C49.8885 36.3992 49.4223 36.2268 49.0691 35.9021C47.1266 34.0557 46.1151 33.9605 43.6559 35.3526C40.6107 37.0798 35.1172 40.4391 35.0606 40.4812C34.7723 40.6545 34.4418 40.7445 34.1058 40.7413Z" fill="white"/>
<path d="M82.1348 72.6107C80.8044 72.6449 79.492 72.2973 78.3519 71.6087C76.6723 70.4841 69.2819 63.2123 67.8177 61.7671C67.4949 61.4224 67.3176 60.9658 67.3227 60.4928C67.3279 60.0199 67.5153 59.5673 67.8455 59.2298C68.1758 58.8923 68.6234 58.696 69.0946 58.6821C69.5659 58.6682 70.0242 58.8377 70.3737 59.1552C73.6599 62.4101 79.2976 67.841 80.373 68.5608C81.0661 68.8821 81.8326 69.0102 82.5921 68.9315C83.3515 68.8529 84.0758 68.5704 84.6889 68.1139C84.976 67.8641 85.2049 67.5542 85.3595 67.2059C85.5141 66.8577 85.5906 66.4796 85.5837 66.0984C85.5767 65.7172 85.4864 65.3422 85.3192 64.9999C85.152 64.6576 84.9119 64.3562 84.6159 64.1172C82.75 62.0108 74.9981 54.5284 73.2966 52.8872C67.3593 50.7037 61.6017 48.0568 56.0767 44.9707L54.1561 46.2309C53.7249 48.2391 52.5745 50.0189 50.9228 51.2332C50.3431 51.6914 49.6701 52.0161 48.9514 52.1845C48.2327 52.3529 47.4859 52.3608 46.7639 52.2076C45.8877 52.0981 45.044 51.8063 44.2866 51.3508C43.5293 50.8954 42.8751 50.2863 42.3658 49.5627C41.3949 47.4815 41.286 45.0991 42.0628 42.9375C43.6201 36.6842 46.1468 35.0741 49.643 32.8468L50.4116 32.3541C54.2638 29.8722 57.5701 28.5497 61.1996 30.1891C63.4562 31.2093 71.4654 34.3213 73.7402 35.2042L81.3643 32.6966C81.821 32.5573 82.314 32.6029 82.7375 32.8238C83.1611 33.0447 83.4816 33.4233 83.6303 33.8784C83.779 34.3334 83.7442 34.8289 83.5332 35.2585C83.3223 35.6881 82.952 36.0178 82.5017 36.1768L74.2587 38.8877C73.8596 39.0183 73.428 39.008 73.0355 38.8584C72.6028 38.6899 62.4192 34.7591 59.708 33.5319C58.0813 32.7992 56.3634 32.8743 52.3907 35.435L51.6056 35.9387C48.4161 37.97 46.815 38.9921 45.6101 43.8259C44.993 46.3023 45.2778 47.3061 45.5023 47.6724C45.7908 48.156 46.459 48.3519 47.5234 48.6194C47.7519 48.658 47.986 48.6452 48.209 48.5818C48.4319 48.5184 48.638 48.4061 48.8123 48.253C49.3273 47.8638 49.7573 47.3729 50.076 46.8106C50.3947 46.2483 50.5953 45.6265 50.6654 44.9835C50.6892 44.7073 50.7752 44.4402 50.9169 44.2023C51.0586 43.9643 51.2523 43.7617 51.4833 43.6097L54.9977 41.3037C55.2747 41.1229 55.5954 41.021 55.9256 41.0087C56.2558 40.9965 56.5832 41.0743 56.8727 41.2341C56.9969 41.3018 69.3057 48.0552 74.6969 49.4766C74.9966 49.5569 75.2715 49.7112 75.4966 49.9254C75.8909 50.3045 85.1727 59.2211 87.3526 61.6884C87.9566 62.275 88.4355 62.9785 88.7604 63.7564C89.0853 64.5343 89.2493 65.3703 89.2424 66.2137C89.2356 67.057 89.0581 67.8902 88.7207 68.6627C88.3833 69.4352 87.893 70.1309 87.2795 70.7076C85.8748 71.9861 84.0306 72.6683 82.1348 72.6107Z" fill="white"/>
<path d="M85.9865 64.7326C85.5681 64.7323 85.1626 64.5879 84.8377 64.3235C84.5128 64.0591 84.2883 63.6907 84.2017 63.2801C84.1151 62.8695 84.1716 62.4415 84.3619 62.0677C84.5522 61.6939 84.8647 61.3971 85.2471 61.2268L91.6516 58.3803C91.8717 58.276 92.1104 58.217 92.3537 58.2066C92.5969 58.1962 92.8397 58.2348 93.0679 58.32C93.2961 58.4052 93.5049 58.5353 93.6823 58.7026C93.8596 58.87 94.0017 59.0713 94.1003 59.2946C94.199 59.5179 94.2521 59.7587 94.2565 60.0029C94.261 60.2472 94.2168 60.4898 94.1264 60.7166C94.036 60.9434 93.9013 61.1498 93.7303 61.3236C93.5593 61.4974 93.3553 61.6351 93.1304 61.7286L86.7241 64.5824C86.4913 64.6833 86.2401 64.7345 85.9865 64.7326Z" fill="white"/>
<path d="M94.3609 66.2309C93.997 66.2308 93.6415 66.1215 93.34 65.9172C93.0384 65.7129 92.8046 65.4229 92.6685 65.0843L78.8882 30.7843C78.7961 30.5556 78.751 30.3105 78.7556 30.0639C78.7602 29.8172 78.8145 29.574 78.9151 29.3489C79.0157 29.1238 79.1605 28.9214 79.341 28.7538C79.5215 28.5863 79.7339 28.457 79.9654 28.3738L94.6914 23.0876C95.1368 22.9277 95.6268 22.9476 96.058 23.1431C96.4891 23.3385 96.8278 23.6942 97.0027 24.1353L110.513 58.1569C110.601 58.3818 110.644 58.6221 110.64 58.8638C110.635 59.1055 110.583 59.3439 110.486 59.5653C110.389 59.7867 110.249 59.9866 110.075 60.1535C109.901 60.3205 109.695 60.4512 109.47 60.5381L95.0145 66.1027C94.8063 66.1853 94.5848 66.2287 94.3609 66.2309ZM82.9796 31.18L95.3778 62.0382L106.431 57.7887L94.2623 27.1319L82.9796 31.18ZM73.9096 78.1661C72.4046 78.2114 70.9348 77.704 69.7762 76.7392C67.3316 74.5595 61.0476 68.2586 60.781 67.9911C60.4485 67.6457 60.2645 67.183 60.2686 66.7027C60.2728 66.2225 60.4648 65.7631 60.8033 65.4235C61.1418 65.0839 61.5997 64.8912 62.0784 64.8871C62.5571 64.8829 63.0182 65.0675 63.3626 65.4012C63.4265 65.4653 69.8383 71.8945 72.2007 74.01C72.6904 74.3093 73.2449 74.4856 73.817 74.5239C74.3891 74.5622 74.962 74.4613 75.487 74.2298C76.3442 73.9365 77.1048 73.4125 77.6856 72.7151C78.2663 72.0178 78.6451 71.1738 78.7805 70.2752C78.8213 70.0382 78.9081 69.8115 79.0362 69.6082C79.1643 69.4048 79.331 69.2287 79.5269 69.09C79.7228 68.9513 79.944 68.8527 80.1779 68.7998C80.4118 68.7468 80.6538 68.7406 80.8901 68.7815C81.1263 68.8224 81.3523 68.9096 81.555 69.0381C81.7577 69.1666 81.9332 69.3339 82.0714 69.5304C82.2097 69.7269 82.308 69.9489 82.3607 70.1835C82.4135 70.4182 82.4197 70.661 82.3789 70.898C82.1307 72.4368 81.4718 73.8794 80.4721 75.0727C79.4724 76.2659 78.1692 77.1653 76.701 77.6752C75.8045 77.9945 74.8609 78.1604 73.9096 78.1661Z" fill="white"/>
<path d="M65.4131 82.606C63.9112 82.6703 62.4435 82.1446 61.3218 81.1407L54.8369 74.6345L57.4203 72.0427L63.9051 78.5488C64.3064 78.7749 64.7505 78.9139 65.2087 78.9568C65.667 78.9997 66.1291 78.9456 66.5651 78.7979C67.4026 78.5917 68.1695 78.1634 68.7855 77.5579C69.4015 76.9525 69.844 76.192 70.0668 75.3562C70.1343 75.1231 70.2473 74.9057 70.3993 74.7168C70.5513 74.5278 70.7393 74.3711 70.9522 74.2557C71.1651 74.1403 71.3988 74.0685 71.6396 74.0445C71.8804 74.0205 72.1236 74.0448 72.355 74.116C72.5864 74.1871 72.8013 74.3037 72.9874 74.459C73.1735 74.6142 73.3269 74.805 73.4388 75.0203C73.5507 75.2356 73.6188 75.4711 73.6392 75.713C73.6596 75.9549 73.6318 76.1985 73.5575 76.4296C73.0496 78.2047 71.9812 79.7664 70.5129 80.8802C69.0446 81.994 67.2538 82.5996 65.4131 82.606Z" fill="white"/>
<path d="M58.4532 87.4985C56.9607 87.5304 55.5011 87.056 54.3107 86.1522C52.666 84.8311 51.0138 83.5196 49.354 82.2178C49.1611 82.0711 48.9992 81.8875 48.8777 81.6775C48.7562 81.4675 48.6775 81.2354 48.6462 80.9946C48.6149 80.7539 48.6316 80.5093 48.6954 80.2751C48.7592 80.0408 48.8688 79.8217 49.0177 79.6303C49.1667 79.439 49.3521 79.2793 49.5632 79.1605C49.7742 79.0416 50.0067 78.9661 50.2471 78.9383C50.4876 78.9104 50.7311 78.9308 50.9636 78.9982C51.1961 79.0657 51.4129 79.1788 51.6014 79.3311C51.6014 79.3311 53.8817 81.1169 56.5928 83.293C57.1704 83.6379 57.8274 83.8265 58.4994 83.8403C59.1715 83.8541 59.8356 83.6926 60.4268 83.3717C60.9553 83.1437 61.4026 82.7603 61.7096 82.2721C62.0167 81.7839 62.169 81.2139 62.1466 80.637C62.1318 80.1515 62.3099 79.68 62.6417 79.3262C62.9734 78.9723 63.4317 78.7652 63.9157 78.7504C64.3982 78.7419 64.8649 78.9229 65.2163 79.2548C65.5676 79.5868 65.7757 80.0434 65.7961 80.5271C65.8391 81.803 65.5077 83.0635 64.843 84.1521C64.1783 85.2406 63.2096 86.1094 62.0571 86.6504C60.9366 87.2069 59.7035 87.4971 58.4532 87.4985Z" fill="white"/>
<path d="M44.7722 86.6505C44.1788 86.6483 43.5916 86.5301 43.0433 86.3025C41.5546 85.5696 40.3274 84.394 39.5288 82.9358C38.2332 83.1881 36.8905 82.9856 35.7259 82.3625C34.7491 81.7201 33.9093 80.8892 33.2555 79.9182C32.6017 78.9471 32.1469 77.8553 31.9176 76.7063C31.8213 76.2385 31.9111 75.7514 32.1677 75.349C33.652 73.0265 35.8903 69.4162 36.2244 68.6634C36.525 68.0628 36.9514 67.5345 37.4745 67.1147C37.9976 66.6948 38.605 66.3934 39.255 66.231C40.1392 65.9985 41.064 65.9673 41.9618 66.1397C42.8595 66.3121 43.7075 66.6837 44.4436 67.2274C45.2594 67.7692 45.9145 68.5216 46.3398 69.4055C46.7652 70.2894 46.9452 71.272 46.8608 72.2498C47.7292 72.2874 48.5795 72.5113 49.3542 72.9066C50.129 73.3019 50.8102 73.8593 51.352 74.5413C51.8782 75.3663 52.2141 76.2988 52.3351 77.2708C52.456 78.2427 52.3591 79.2295 52.0512 80.159C51.0936 82.8404 49.1276 85.0391 46.5742 86.2841C46.004 86.526 45.3912 86.6505 44.7722 86.6505ZM42.6033 80.9338C43.1766 81.9064 44.2008 83.3022 45.1593 82.901C46.7506 82.0695 47.9757 80.6725 48.5952 78.9831C48.7171 78.6092 48.7637 78.2148 48.7324 77.8227C48.7011 77.4305 48.5924 77.0486 48.4126 76.699C48.1349 76.4261 47.8052 76.2121 47.4432 76.0699C47.0812 75.9276 46.6944 75.86 46.3058 75.8711L42.6033 80.9338ZM35.6821 76.6294C35.9726 77.6471 36.6022 78.5342 37.4658 79.1424C37.7354 79.2812 38.0306 79.3631 38.333 79.3829C38.6354 79.4028 38.9386 79.3602 39.224 79.2578L43.1218 72.5539C43.2767 72.1396 43.2867 71.6848 43.15 71.2641C43.0133 70.8434 42.7381 70.4818 42.3696 70.2387C42.0893 70.0169 41.7657 69.8566 41.4198 69.7679C41.0739 69.6793 40.7134 69.6643 40.3614 69.724C40.0506 69.7754 39.7669 69.9325 39.5581 70.1691C39.0761 71.2406 36.7575 74.9332 35.6821 76.6294Z" fill="white"/>
<path d="M30.8177 79.4903C30.3851 79.4916 29.9546 79.4299 29.5397 79.3072C26.4123 78.3639 25.1873 74.3012 25.0576 73.8415C24.9922 73.6082 24.9735 73.3643 25.0026 73.1238C25.0317 72.8832 25.1082 72.6509 25.2274 72.4402C26.7792 69.7358 28.4956 67.1299 30.3667 64.6373C31.3061 63.4112 32.6672 62.5804 34.1843 62.3071C35.7014 62.0338 37.2655 62.3376 38.5714 63.1591C40.2948 64.3589 41.5582 66.969 39.4441 70.3796C39.3176 70.5841 39.1522 70.7615 38.9574 70.9019C38.7626 71.0422 38.5421 71.1427 38.3086 71.1975C38.075 71.2524 37.833 71.2605 37.5963 71.2215C37.3597 71.1826 37.133 71.0972 36.9292 70.9703C36.7254 70.8434 36.5485 70.6775 36.4086 70.482C36.2687 70.2866 36.1686 70.0654 36.1139 69.8311C36.0593 69.5968 36.0511 69.354 36.09 69.1165C36.1288 68.8791 36.2139 68.6516 36.3404 68.4472C36.8096 67.687 37.2167 66.6778 36.4883 66.1704C35.9559 65.8786 35.3366 65.7888 34.7437 65.9172C34.1507 66.0457 33.6236 66.3839 33.2586 66.8701C31.6548 69.0082 30.1707 71.2341 28.8131 73.5374C29.2129 74.4954 29.8939 75.5925 30.5895 75.7995C31.2047 75.9827 32.05 75.3489 32.5083 74.957C32.8748 74.6392 33.3521 74.4806 33.8352 74.516C34.3183 74.5514 34.7676 74.7779 35.0843 75.1456C35.401 75.5134 35.5591 75.9922 35.5238 76.4769C35.4885 76.9616 35.2628 77.4124 34.8963 77.7301C33.7986 78.7998 32.3466 79.4265 30.8177 79.4903Z" fill="white"/>
<path d="M26.8112 75.1695C26.6105 75.1693 26.4113 75.1358 26.2215 75.0706C25.9129 74.9662 18.6357 72.4147 18.6357 66.6962C18.6355 66.5041 18.6651 66.3131 18.7234 66.1302C19.384 64.3062 20.2887 62.5809 21.4126 61.0015C22.249 59.9987 23.4043 59.3157 24.6838 59.0675C25.9634 58.8193 27.2892 59.021 28.4379 59.6387C29.5192 60.1195 30.3815 60.9895 30.8547 62.077C31.3279 63.1645 31.3776 64.3905 30.9938 65.5129C29.7998 69.3704 28.5748 73.7793 28.562 73.8251C28.4548 74.2102 28.2249 74.5495 27.9075 74.7913C27.59 75.033 27.2024 75.1639 26.8039 75.164L26.8112 75.1695ZM22.3017 66.9801C22.4843 68.6945 24.2333 69.9987 25.6354 70.7808C26.1119 69.1103 26.8185 66.6797 27.5122 64.4322C27.5759 64.2894 27.6085 64.1347 27.6078 63.9783C27.6071 63.8219 27.5731 63.6674 27.5081 63.5252C27.4431 63.3831 27.3486 63.2564 27.231 63.1538C27.1133 63.0512 26.9752 62.975 26.8258 62.9302C26.4486 62.7168 26.0168 62.6202 25.5849 62.6528C25.1531 62.6854 24.7405 62.8457 24.3994 63.1134C23.553 64.3162 22.849 65.6139 22.3017 66.9801Z" fill="white"/>
<path d="M21.9599 65.3682C21.5924 65.3677 21.2335 65.256 20.9303 65.0476L16.1415 61.7506C15.7418 61.4761 15.4671 61.0536 15.3779 60.5759C15.2887 60.0983 15.3923 59.6047 15.6659 59.2037C15.9395 58.8026 16.3606 58.5271 16.8367 58.4376C17.3128 58.3481 17.8048 58.452 18.2045 58.7265L22.9933 62.0235C23.3158 62.2444 23.5593 62.5631 23.688 62.9331C23.8166 63.303 23.8237 63.7046 23.708 64.0788C23.5924 64.453 23.3602 64.7802 23.0456 65.0123C22.731 65.2443 22.3505 65.3691 21.9599 65.3682Z" fill="white"/>
</g>
<defs>
<clipPath id="clip0_403_5397">
<rect width="110" height="100" fill="white" transform="translate(0 0.5)"/>
</clipPath>
</defs>
</svg>
