<svg width="96" height="96" viewBox="0 0 96 96" fill="none" xmlns="http://www.w3.org/2000/svg">
<path d="M75.4201 20.7839C70.0285 15.3607 63.1482 11.6601 55.6513 10.1511C48.1544 8.64202 40.3782 9.39245 33.3082 12.3073C26.2382 15.2221 20.1925 20.17 15.9374 26.5242C11.6823 32.8783 9.40924 40.3526 9.40625 47.9999V68.7812C9.40625 71.1433 10.3446 73.4086 12.0148 75.0789C13.6851 76.7491 15.9504 77.6874 18.3125 77.6874H24.25C26.6121 77.6874 28.8774 76.7491 30.5477 75.0789C32.2179 73.4086 33.1563 71.1433 33.1563 68.7812V53.9374C33.1563 51.5754 32.2179 49.31 30.5477 47.6398C28.8774 45.9695 26.6121 45.0312 24.25 45.0312H15.4773C16.0499 38.8411 18.375 32.9425 22.1801 28.0266C25.9853 23.1107 31.1128 19.3813 36.9618 17.2755C42.8108 15.1696 49.1388 14.7746 55.2043 16.1368C61.2697 17.4989 66.8213 20.5617 71.2082 24.9662C76.5701 30.3556 79.8682 37.4574 80.5264 45.0312H71.75C69.3879 45.0312 67.1226 45.9695 65.4523 47.6398C63.7821 49.31 62.8438 51.5754 62.8438 53.9374V68.7812C62.8438 71.1433 63.7821 73.4086 65.4523 75.0789C67.1226 76.7491 69.3879 77.6874 71.75 77.6874H80.6563C80.6563 80.0495 79.7179 82.3149 78.0477 83.9851C76.3774 85.6554 74.1121 86.5937 71.75 86.5937H50.9688C50.1814 86.5937 49.4263 86.9065 48.8695 87.4632C48.3128 88.02 48 88.7751 48 89.5624C48 90.3498 48.3128 91.1049 48.8695 91.6617C49.4263 92.2184 50.1814 92.5312 50.9688 92.5312H71.75C75.6868 92.5312 79.4624 90.9673 82.2461 88.1836C85.0299 85.3998 86.5938 81.6243 86.5938 77.6874V47.9999C86.6131 42.9515 85.6361 37.9488 83.7187 33.2786C81.8013 28.6084 78.9813 24.3624 75.4201 20.7839ZM24.25 50.9687C25.0374 50.9687 25.7925 51.2815 26.3492 51.8382C26.906 52.395 27.2188 53.1501 27.2188 53.9374V68.7812C27.2188 69.5686 26.906 70.3237 26.3492 70.8804C25.7925 71.4372 25.0374 71.75 24.25 71.75H18.3125C17.5251 71.75 16.77 71.4372 16.2133 70.8804C15.6565 70.3237 15.3438 69.5686 15.3438 68.7812V50.9687H24.25ZM71.75 71.75C70.9626 71.75 70.2075 71.4372 69.6508 70.8804C69.094 70.3237 68.7813 69.5686 68.7813 68.7812V53.9374C68.7813 53.1501 69.094 52.395 69.6508 51.8382C70.2075 51.2815 70.9626 50.9687 71.75 50.9687H80.6563V71.75H71.75Z" fill="white"/>
</svg>
