<svg width="80" height="89" viewBox="0 0 80 89" fill="none" xmlns="http://www.w3.org/2000/svg">
<path d="M2.5 52.8V71.06C2.5 72.4354 3.61929 73.55 5 73.55H27.5" stroke="white" stroke-width="5" stroke-linecap="round" stroke-linejoin="round"/>
<path d="M65.0003 52.8V71.06C65.0003 72.4354 63.8812 73.55 62.5003 73.55H44.167" stroke="white" stroke-width="5" stroke-linecap="round" stroke-linejoin="round"/>
<path d="M44.167 15.45H62.5003C63.8812 15.45 65.0003 16.5648 65.0003 17.94V36.1999" stroke="white" stroke-width="5" stroke-linecap="round" stroke-linejoin="round"/>
<path d="M2.5 36.1999V17.94C2.5 16.5648 3.61929 15.45 5 15.45H27.5" stroke="white" stroke-width="5" stroke-linecap="round" stroke-linejoin="round"/>
<path d="M44.1667 73.55V77.7C44.1667 82.2841 40.4358 86 35.8333 86C31.2308 86 27.5 82.2841 27.5 77.7V73.55" stroke="white" stroke-width="5" stroke-linecap="round" stroke-linejoin="round"/>
<path d="M2.5 36.2H6.66667C11.269 36.2 15 39.9159 15 44.5C15 49.084 11.269 52.7999 6.66667 52.7999H2.5" stroke="white" stroke-width="5" stroke-linecap="round" stroke-linejoin="round"/>
<path d="M65 36.2H69.1667C73.7692 36.2 77.5 39.9159 77.5 44.5C77.5 49.084 73.7692 52.7999 69.1667 52.7999H65" stroke="white" stroke-width="5" stroke-linecap="round" stroke-linejoin="round"/>
<path d="M44.1667 15.45V11.3C44.1667 6.71603 40.4358 3 35.8333 3C31.2308 3 27.5 6.71603 27.5 11.3V15.45" stroke="white" stroke-width="5" stroke-linecap="round" stroke-linejoin="round"/>
</svg>
