<svg width="100" height="101" viewBox="0 0 100 101" fill="none" xmlns="http://www.w3.org/2000/svg">
<path d="M79.1668 38C79.1668 44.0417 77.3752 49.5834 74.2918 54.2084C69.7918 60.8751 62.6668 65.5834 54.3752 66.7917C52.9585 67.0417 51.5002 67.1667 50.0002 67.1667C48.5002 67.1667 47.0418 67.0417 45.6252 66.7917C37.3335 65.5834 30.2085 60.8751 25.7085 54.2084C22.6252 49.5834 20.8335 44.0417 20.8335 38C20.8335 21.875 33.8752 8.83337 50.0002 8.83337C66.1252 8.83337 79.1668 21.875 79.1668 38Z" stroke="white" stroke-width="5" stroke-linecap="round" stroke-linejoin="round"/>
<path d="M88.5417 77.4584L81.6667 79.0833C80.125 79.4583 78.9167 80.6251 78.5833 82.1667L77.125 88.2917C76.3333 91.6251 72.0833 92.6251 69.875 90.0001L50 67.1667L30.125 90.0417C27.9167 92.6667 23.6667 91.6666 22.875 88.3333L21.4167 82.2083C21.0417 80.6666 19.8333 79.4583 18.3333 79.125L11.4583 77.5001C8.29167 76.7501 7.16667 72.7916 9.45834 70.5L25.7083 54.25C30.2083 60.9167 37.3333 65.6251 45.625 66.8334C47.0417 67.0834 48.5 67.2084 50 67.2084C51.5 67.2084 52.9583 67.0834 54.375 66.8334C62.6667 65.6251 69.7917 60.9167 74.2917 54.25L90.5417 70.5C92.8333 72.75 91.7083 76.7084 88.5417 77.4584Z" stroke="white" stroke-width="5" stroke-linecap="round" stroke-linejoin="round"/>
<path d="M52.4167 25.4166L54.8751 30.3333C55.2084 30.9999 56.0834 31.6666 56.875 31.7916L61.3334 32.5416C64.1667 32.9999 64.8334 35.0833 62.7917 37.1249L59.3334 40.5832C58.7501 41.1666 58.4167 42.2916 58.625 43.125L59.6251 47.4166C60.4167 50.7916 58.6251 52.1249 55.6251 50.3332L51.4584 47.8749C50.7084 47.4166 49.4584 47.4166 48.7084 47.8749L44.5417 50.3332C41.5417 52.0832 39.75 50.7916 40.5417 47.4166L41.5417 43.125C41.7084 42.3333 41.4167 41.1666 40.8334 40.5832L37.3751 37.1249C35.3334 35.0833 36 33.0416 38.8334 32.5416L43.2917 31.7916C44.0417 31.6666 44.9167 30.9999 45.25 30.3333L47.7084 25.4166C48.9167 22.75 51.0834 22.75 52.4167 25.4166Z" stroke="white" stroke-width="5" stroke-linecap="round" stroke-linejoin="round"/>
</svg>
