<svg width="17" height="15" viewBox="0 0 17 15" fill="none" xmlns="http://www.w3.org/2000/svg">
<path d="M1 6.56885C0.447715 6.56885 2.41412e-08 7.01656 0 7.56885C-2.41412e-08 8.12113 0.447715 8.56885 1 8.56885L1 6.56885ZM16.7071 8.27596C17.0976 7.88543 17.0976 7.25227 16.7071 6.86174L10.3431 0.49778C9.95262 0.107256 9.31946 0.107256 8.92893 0.49778C8.53841 0.888305 8.53841 1.52147 8.92893 1.91199L14.5858 7.56885L8.92893 13.2257C8.53841 13.6162 8.53841 14.2494 8.92893 14.6399C9.31946 15.0304 9.95262 15.0304 10.3431 14.6399L16.7071 8.27596ZM1 7.56885L1 8.56885L16 8.56885L16 7.56885L16 6.56885L1 6.56885L1 7.56885Z" fill="#D23216"/>
</svg>
