<svg width="40" height="41" viewBox="0 0 40 41" fill="none" xmlns="http://www.w3.org/2000/svg">
<g clip-path="url(#clip0_2006_5877)">
<path d="M19.7987 5.97559C25.1819 5.97559 30.5668 5.97559 35.95 5.97883C36.5219 5.97883 37.0922 6.01286 37.6437 6.21221C38.9519 6.68545 39.8997 7.97713 39.9624 9.40658C39.9859 9.93654 40 10.4681 40 10.9981C40.0031 17.6073 40.0031 24.218 40 30.8272C40 31.6035 39.9499 32.3766 39.566 33.0735C38.9331 34.2258 37.9836 34.8838 36.6958 34.9826C36.2493 35.0167 35.798 35.0231 35.35 35.0231C24.8827 35.0248 14.4138 35.0248 3.94657 35.0231C3.06451 35.0231 2.22161 34.8789 1.49309 34.3165C0.603188 33.6294 0.10027 32.7185 0.0423015 31.5646C0.017234 31.0622 0.00470017 30.5565 0.00470017 30.0541C0 23.3915 0 16.7288 0 10.0646C0 9.16996 0.128471 8.30775 0.65489 7.56062C1.31448 6.6271 2.19185 6.08903 3.31675 6.01772C3.77737 5.98855 4.23955 5.97721 4.70174 5.97721C9.73405 5.97559 14.7664 5.97559 19.7987 5.97559ZM35.9923 8.41634H3.97791C4.40562 8.83934 4.80514 9.22344 5.19212 9.62051C7.64874 12.1391 10.1054 14.6608 12.5589 17.1826C14.16 18.8292 15.7565 20.4775 17.3515 22.129C17.917 22.714 18.5625 23.15 19.3631 23.2813C20.6447 23.4903 21.721 23.0933 22.6407 22.1387C24.8905 19.8033 27.1576 17.4873 29.4215 15.1665C31.5695 12.964 33.7206 10.7663 35.8701 8.56544C35.9093 8.52655 35.9406 8.47955 35.9923 8.41634ZM4.08915 32.5856H36.0049C35.9563 32.5322 35.9312 32.503 35.9046 32.4754C34.7374 31.2842 33.5702 30.0963 32.4045 28.9034C30.2628 26.7139 28.1227 24.5243 25.9841 22.3299C25.8823 22.2262 25.829 22.2343 25.735 22.3332C25.2321 22.8599 24.7245 23.3818 24.2153 23.9004C23.0794 25.0608 21.7148 25.7026 20.1152 25.7399C18.4278 25.7788 16.9974 25.1126 15.7941 23.915C15.274 23.398 14.7711 22.8615 14.265 22.3299C14.1726 22.2327 14.1209 22.2213 14.0175 22.3299C12.4257 23.9652 10.8276 25.594 9.2327 27.2276C7.90568 28.5858 6.58024 29.9439 5.25949 31.3102C4.85057 31.7332 4.46516 32.1772 4.08915 32.5905V32.5856ZM12.3411 20.4467C9.07759 17.053 5.73264 13.5766 2.35948 10.0678V30.8758C2.37672 30.8888 2.39395 30.9017 2.41119 30.9147C5.72951 27.4173 9.04782 23.9182 12.3411 20.4451V20.4467ZM37.6468 10.131C37.6295 10.1164 37.6123 10.1019 37.5951 10.0873C34.2439 13.5588 30.8926 17.0319 27.5305 20.5131C30.9083 23.9814 34.2689 27.4319 37.6468 30.9001V10.131Z" fill="#D23216"/>
</g>
<defs>
<clipPath id="clip0_2006_5877">
<rect width="40" height="29.0492" fill="white" transform="translate(0 5.97559)"/>
</clipPath>
</defs>
</svg>
