<svg width="23" height="23" viewBox="0 0 23 23" fill="none" xmlns="http://www.w3.org/2000/svg">
<g clip-path="url(#clip0_2006_7138)">
<path d="M11.1766 3.40332C14.0989 3.40332 17.0221 3.40332 19.9444 3.40508C20.2549 3.40508 20.5645 3.42356 20.8638 3.53177C21.574 3.78867 22.0886 4.48987 22.1226 5.26586C22.1353 5.55355 22.143 5.84213 22.143 6.12982C22.1447 9.71765 22.1447 13.3064 22.143 16.8942C22.143 17.3156 22.1158 17.7353 21.9074 18.1136C21.5638 18.7391 21.0484 19.0963 20.3493 19.15C20.1069 19.1685 19.8619 19.172 19.6187 19.172C13.9365 19.1729 8.25337 19.1729 2.57114 19.172C2.0923 19.172 1.63473 19.0937 1.23924 18.7884C0.756156 18.4154 0.483143 17.9209 0.451675 17.2945C0.438067 17.0218 0.431262 16.7473 0.431262 16.4745C0.428711 12.8577 0.428711 9.2408 0.428711 5.62306C0.428711 5.13741 0.498452 4.66935 0.784223 4.26377C1.14229 3.757 1.61857 3.46491 2.22923 3.4262C2.47928 3.41036 2.73018 3.4042 2.98108 3.4042C5.71291 3.40332 8.44474 3.40332 11.1766 3.40332ZM19.9674 4.7283H2.58815C2.82034 4.95793 3.03722 5.16644 3.24729 5.38199C4.58088 6.7492 5.91448 8.11818 7.24637 9.48715C8.11559 10.381 8.98226 11.2758 9.84807 12.1723C10.1551 12.4899 10.5055 12.7266 10.9401 12.7978C11.6358 12.9113 12.2201 12.6958 12.7194 12.1776C13.9407 10.9098 15.1714 9.65255 16.4004 8.39267C17.5664 7.19702 18.7342 6.00401 19.9011 4.80924C19.9223 4.78813 19.9393 4.76261 19.9674 4.7283ZM2.64853 17.8488H19.9742C19.9478 17.8197 19.9342 17.8039 19.9198 17.7889C19.2861 17.1423 18.6525 16.4974 18.0197 15.8499C16.8571 14.6613 15.6953 13.4726 14.5344 12.2814C14.4791 12.2251 14.4502 12.2295 14.3991 12.2832C14.1261 12.5691 13.8506 12.8524 13.5741 13.1339C12.9575 13.7639 12.2167 14.1123 11.3484 14.1325C10.4324 14.1536 9.65586 13.792 9.00267 13.1418C8.7203 12.8612 8.44729 12.57 8.17257 12.2814C8.1224 12.2286 8.09433 12.2224 8.03819 12.2814C7.17408 13.1691 6.30656 14.0533 5.44075 14.9402C4.72037 15.6774 4.00084 16.4147 3.28386 17.1564C3.06188 17.386 2.85266 17.6271 2.64853 17.8514V17.8488ZM7.12815 11.2591C5.35655 9.41676 3.54072 7.52959 1.70957 5.62482V16.9206C1.71893 16.9276 1.72829 16.9347 1.73764 16.9417C3.53901 15.0431 5.34039 13.1436 7.12815 11.2582V11.2591ZM20.8655 5.65913C20.8562 5.65121 20.8468 5.64329 20.8375 5.63538C19.0182 7.51991 17.199 9.40532 15.3738 11.2951C17.2075 13.1779 19.0318 15.051 20.8655 16.9338V5.65913Z" fill="white"/>
</g>
<defs>
<clipPath id="clip0_2006_7138">
<rect width="21.7143" height="15.7696" fill="white" transform="translate(0.428711 3.40332)"/>
</clipPath>
</defs>
</svg>
