<svg width="41" height="41" viewBox="0 0 41 41" fill="none" xmlns="http://www.w3.org/2000/svg">
<g clip-path="url(#clip0_3049_10507)">
<path d="M20.2987 5.61963C25.6819 5.61963 31.0668 5.61963 36.45 5.62287C37.0219 5.62287 37.5922 5.6569 38.1437 5.85625C39.4519 6.32949 40.3997 7.62118 40.4624 9.05062C40.4859 9.58059 40.5 10.1122 40.5 10.6421C40.5031 17.2513 40.5031 23.8621 40.5 30.4712C40.5 31.2475 40.4499 32.0206 40.066 32.7175C39.4331 33.8698 38.4836 34.5278 37.1958 34.6267C36.7493 34.6607 36.298 34.6672 35.85 34.6672C25.3827 34.6688 14.9138 34.6688 4.44657 34.6672C3.56451 34.6672 2.72161 34.5229 1.99309 33.9606C1.10319 33.2734 0.60027 32.3626 0.542302 31.2086C0.517234 30.7062 0.5047 30.2006 0.5047 29.6982C0.5 23.0355 0.5 16.3729 0.5 9.70862C0.5 8.814 0.628471 7.9518 1.15489 7.20466C1.81448 6.27114 2.69185 5.73308 3.81675 5.66177C4.27737 5.63259 4.73955 5.62125 5.20174 5.62125C10.234 5.61963 15.2664 5.61963 20.2987 5.61963ZM36.4923 8.06038H4.47791C4.90562 8.48338 5.30514 8.86748 5.69212 9.26455C8.14874 11.7831 10.6054 14.3049 13.0589 16.8267C14.66 18.4733 16.2565 20.1215 17.8515 21.773C18.417 22.3581 19.0625 22.794 19.8631 22.9253C21.1447 23.1344 22.221 22.7373 23.1407 21.7827C25.3905 19.4473 27.6576 17.1314 29.9215 14.8105C32.0695 12.608 34.2206 10.4104 36.3701 8.20949C36.4093 8.17059 36.4406 8.12359 36.4923 8.06038ZM4.58915 32.2297H36.5049C36.4563 32.1762 36.4312 32.147 36.4046 32.1195C35.2374 30.9283 34.0702 29.7403 32.9045 28.5475C30.7628 26.3579 28.6227 24.1684 26.4841 21.974C26.3823 21.8703 26.329 21.8784 26.235 21.9772C25.7321 22.5039 25.2245 23.0258 24.7153 23.5444C23.5794 24.7048 22.2148 25.3466 20.6152 25.3839C18.9278 25.4228 17.4974 24.7567 16.2941 23.559C15.774 23.042 15.2711 22.5056 14.765 21.974C14.6726 21.8767 14.6209 21.8654 14.5175 21.974C12.9257 23.6092 11.3276 25.238 9.7327 26.8717C8.40568 28.2298 7.08024 29.588 5.75949 30.9542C5.35057 31.3772 4.96516 31.8213 4.58915 32.2345V32.2297ZM12.8411 20.0907C9.57759 16.697 6.23264 13.2206 2.85948 9.71186V30.5199C2.87672 30.5328 2.89395 30.5458 2.91119 30.5588C6.22951 27.0613 9.54782 23.5622 12.8411 20.0891V20.0907ZM38.1468 9.77507C38.1295 9.76048 38.1123 9.7459 38.0951 9.73131C34.7439 13.2028 31.3926 16.676 28.0305 20.1572C31.4083 23.6255 34.7689 27.0759 38.1468 30.5442V9.77507Z" fill="white"/>
</g>
<defs>
<clipPath id="clip0_3049_10507">
<rect width="40" height="29.0492" fill="white" transform="translate(0.5 5.61963)"/>
</clipPath>
</defs>
</svg>
