<svg width="23" height="23" viewBox="0 0 23 23" fill="none" xmlns="http://www.w3.org/2000/svg">
<mask id="mask0_3112_12747" style="mask-type:luminance" maskUnits="userSpaceOnUse" x="13" y="2" width="9" height="8">
<path fill-rule="evenodd" clip-rule="evenodd" d="M13.4155 2.17969H21.1413V9.89985H13.4155V2.17969Z" fill="white"/>
</mask>
<g mask="url(#mask0_3112_12747)">
<path fill-rule="evenodd" clip-rule="evenodd" d="M20.4624 9.89985C20.1214 9.89985 19.8282 9.64381 19.7893 9.29728C19.4464 6.2428 17.0741 3.87233 14.0187 3.53304C13.6469 3.49142 13.3782 3.15666 13.4198 2.7839C13.4605 2.41204 13.7925 2.1379 14.1689 2.18495C17.8585 2.5948 20.7239 5.45657 21.1374 9.14528C21.179 9.51804 20.9112 9.85371 20.5394 9.89533C20.514 9.89804 20.4878 9.89985 20.4624 9.89985" fill="white"/>
</g>
<path fill-rule="evenodd" clip-rule="evenodd" d="M17.2596 9.90876C16.9411 9.90876 16.6579 9.68438 16.5946 9.36048C16.334 8.02143 15.3016 6.9891 13.9644 6.72943C13.5962 6.65795 13.3564 6.30238 13.4279 5.93414C13.4994 5.56591 13.8613 5.32524 14.2232 5.39762C16.106 5.76314 17.5599 7.21619 17.9264 9.09991C17.9978 9.46905 17.7581 9.82462 17.3907 9.8961C17.3464 9.90424 17.303 9.90876 17.2596 9.90876" fill="white"/>
<path d="M3.46955 3.99932C5.21341 2.2553 6.34967 1.79279 7.56135 2.48955C7.90982 2.68998 8.23626 2.97098 8.68049 3.42217L10.0438 4.83526C10.7965 5.65663 10.9676 6.44482 10.7225 7.36748L10.6883 7.48955L10.6512 7.61065L10.4686 8.1458C10.0787 9.34439 10.2417 10.0207 11.6287 11.4075C13.0716 12.85 13.7457 12.9681 15.0369 12.5169L15.2664 12.4368L15.5447 12.347L15.6668 12.3128C16.6475 12.0512 17.4758 12.2602 18.3543 13.138L19.453 14.1985L19.7762 14.5169C20.1346 14.8824 20.3717 15.1718 20.5467 15.4778C21.2391 16.6891 20.7762 17.8243 18.9822 19.6116L18.8113 19.7845C18.5435 20.0426 18.2933 20.2281 17.9256 20.4026C17.3085 20.6956 16.5793 20.8056 15.7322 20.6878C13.6445 20.3975 10.9965 18.7501 7.64143 15.3958C7.3684 15.1228 7.1065 14.8556 6.85627 14.5931L6.37092 14.0745C1.8201 9.1302 1.41805 6.09266 3.28303 4.1878L3.40412 4.06768L3.46955 3.99932ZM6.88459 3.66631C6.46704 3.42623 6.0158 3.52828 5.18147 4.24639L4.91975 4.48077C4.87408 4.52292 4.82692 4.56623 4.77912 4.61163L4.47834 4.90459L4.451 4.93877L4.24787 5.14385C3.75541 5.6469 3.52146 6.26087 3.72248 7.3167C4.05248 9.04928 5.56254 11.3997 8.60041 14.4368C11.766 17.6016 14.1783 19.1019 15.9188 19.344C16.9333 19.4851 17.4506 19.2392 17.9783 18.6985L18.3817 18.2923C18.5702 18.095 18.7309 17.9157 18.867 17.7523L19.0535 17.5189C19.5282 16.8866 19.571 16.5068 19.368 16.1517C19.2908 16.0167 19.1787 15.8686 19.0155 15.6878L18.7928 15.4534L18.6619 15.3216L17.2762 13.9837C16.8134 13.557 16.4967 13.4962 16.0164 13.6243L15.8778 13.6644L15.3045 13.8597C13.6397 14.3973 12.4383 14.1364 10.6697 12.3685C8.83793 10.5371 8.62336 9.31388 9.23713 7.55303L9.27619 7.43975L9.38459 7.11163L9.4383 6.90264C9.53321 6.44757 9.42456 6.13019 8.93537 5.64092C8.91536 5.62092 8.89325 5.59817 8.86897 5.57354L7.58186 4.24346C7.28709 3.95286 7.07336 3.77487 6.88459 3.66631Z" fill="white"/>
</svg>
