<svg width="23" height="22" viewBox="0 0 23 22" fill="none" xmlns="http://www.w3.org/2000/svg">
<g clip-path="url(#clip0_3112_12651)">
<path d="M11.1763 3.19922C14.0987 3.19922 17.0219 3.19922 19.9442 3.20098C20.2546 3.20098 20.5642 3.21945 20.8636 3.32767C21.5738 3.58457 22.0883 4.28577 22.1223 5.06176C22.1351 5.34945 22.1428 5.63803 22.1428 5.92572C22.1445 9.51355 22.1445 13.1023 22.1428 16.6901C22.1428 17.1115 22.1155 17.5312 21.9072 17.9095C21.5636 18.535 21.0482 18.8922 20.349 18.9459C20.1066 18.9644 19.8617 18.9679 19.6185 18.9679C13.9362 18.9688 8.25313 18.9688 2.57089 18.9679C2.09206 18.9679 1.63449 18.8896 1.239 18.5843C0.755912 18.2113 0.482899 17.7168 0.45143 17.0904C0.437822 16.8177 0.431018 16.5432 0.431018 16.2704C0.428467 12.6536 0.428467 9.0367 0.428467 5.41896C0.428467 4.93331 0.498208 4.46525 0.783979 4.05966C1.14204 3.5529 1.61833 3.2608 2.22899 3.22209C2.47904 3.20626 2.72994 3.2001 2.98084 3.2001C5.71266 3.19922 8.44449 3.19922 11.1763 3.19922ZM19.9672 4.5242H2.5879C2.82009 4.75383 3.03697 4.96234 3.24705 5.17789C4.58064 6.5451 5.91424 7.91407 7.24613 9.28304C8.11535 10.1769 8.98201 11.0717 9.84783 11.9682C10.1549 12.2858 10.5053 12.5225 10.9399 12.5937C11.6356 12.7072 12.2199 12.4917 12.7191 11.9735C13.9405 10.7057 15.1711 9.44845 16.4001 8.18857C17.5662 6.99292 18.7339 5.79991 19.9008 4.60514C19.9221 4.58403 19.9391 4.55851 19.9672 4.5242ZM2.64829 17.6447H19.974C19.9476 17.6156 19.934 17.5998 19.9195 17.5848C19.2859 16.9382 18.6523 16.2933 18.0195 15.6458C16.8569 14.4572 15.6951 13.2685 14.5341 12.0773C14.4788 12.021 14.4499 12.0254 14.3989 12.0791C14.1259 12.365 13.8503 12.6483 13.5739 12.9298C12.9573 13.5598 12.2165 13.9082 11.3481 13.9284C10.4321 13.9495 9.65561 13.5879 9.00242 12.9377C8.72006 12.6571 8.44704 12.3659 8.17233 12.0773C8.12215 12.0245 8.09408 12.0183 8.03795 12.0773C7.17384 12.965 6.30632 13.8492 5.4405 14.7361C4.72012 15.4733 4.0006 16.2106 3.28362 16.9523C3.06164 17.1819 2.85241 17.423 2.64829 17.6473V17.6447ZM7.12791 11.055C5.3563 9.21266 3.54047 7.32549 1.70933 5.42072V16.7165C1.71869 16.7235 1.72804 16.7306 1.7374 16.7376C3.53877 14.839 5.34014 12.9395 7.12791 11.0541V11.055ZM20.8653 5.45503C20.8559 5.44711 20.8466 5.43919 20.8372 5.43127C19.018 7.31581 17.1988 9.20122 15.3736 11.091C17.2073 12.9738 19.0316 14.8469 20.8653 16.7297V5.45503Z" fill="white"/>
</g>
<defs>
<clipPath id="clip0_3112_12651">
<rect width="21.7143" height="15.7696" fill="white" transform="translate(0.428467 3.19922)"/>
</clipPath>
</defs>
</svg>
