<svg width="41" height="41" viewBox="0 0 41 41" fill="none" xmlns="http://www.w3.org/2000/svg">
<mask id="mask0_3049_9821" style="mask-type:luminance" maskUnits="userSpaceOnUse" x="24" y="3" width="15" height="15">
<path fill-rule="evenodd" clip-rule="evenodd" d="M24.4233 3.47803H38.655V17.6994H24.4233V3.47803Z" fill="white"/>
</mask>
<g mask="url(#mask0_3049_9821)">
<path fill-rule="evenodd" clip-rule="evenodd" d="M37.4045 17.6994C36.7762 17.6994 36.2362 17.2277 36.1645 16.5894C35.5328 10.9627 31.1628 6.59605 25.5345 5.97105C24.8495 5.89438 24.3545 5.27772 24.4312 4.59105C24.5062 3.90605 25.1178 3.40105 25.8112 3.48772C32.6078 4.24272 37.8862 9.51438 38.6478 16.3094C38.7245 16.9961 38.2312 17.6144 37.5462 17.6911C37.4995 17.6961 37.4512 17.6994 37.4045 17.6994" fill="white"/>
</g>
<path fill-rule="evenodd" clip-rule="evenodd" d="M31.5043 17.7175C30.9177 17.7175 30.396 17.3041 30.2793 16.7075C29.7993 14.2408 27.8977 12.3391 25.4343 11.8608C24.756 11.7291 24.3143 11.0741 24.446 10.3958C24.5777 9.71747 25.2443 9.27413 25.911 9.40747C29.3793 10.0808 32.0577 12.7575 32.7327 16.2275C32.8643 16.9075 32.4227 17.5625 31.746 17.6941C31.6643 17.7091 31.5843 17.7175 31.5043 17.7175" fill="white"/>
<path d="M6.10199 6.83114C9.31412 3.61873 11.4063 2.7668 13.6381 4.04989C14.2801 4.41908 14.8822 4.93648 15.7006 5.76767L18.2114 8.37118C19.598 9.88428 19.9138 11.3355 19.4623 13.0352L19.3998 13.2608L19.3305 13.4845L18.9955 14.4688C18.2772 16.6771 18.5764 17.9234 21.1323 20.4786C23.7901 23.1357 25.031 23.3528 27.4096 22.5216L27.8334 22.3741L28.3461 22.2081L28.5707 22.1456C30.3774 21.6636 31.9034 22.0486 33.5219 23.6661L35.5454 25.6192L36.1401 26.2052C36.8002 26.8784 37.2367 27.4119 37.559 27.9757C38.8345 30.2071 37.9822 32.2982 34.6772 35.5909L34.3627 35.9093C33.8693 36.3848 33.4081 36.7254 32.7309 37.047C31.5942 37.5866 30.2513 37.7903 28.6909 37.5733C24.8451 37.0385 19.967 34.0041 13.7866 27.8253C13.2835 27.3223 12.8014 26.8285 12.3403 26.3448L11.4457 25.3907C3.06299 16.2831 2.32323 10.6878 5.75824 7.1788L5.9809 6.95712L6.10199 6.83114ZM12.392 6.21786C11.6228 5.77559 10.7923 5.9624 9.25531 7.28525L8.77289 7.71689C8.68867 7.79463 8.60226 7.87534 8.5141 7.95907L7.96039 8.49814L7.91059 8.56064L7.53461 8.93759C6.62744 9.86425 6.19751 10.9956 6.56781 12.9405C7.17549 16.1322 9.95761 20.4616 15.5541 26.0567C21.3855 31.8866 25.8285 34.6508 29.0346 35.0968C30.9036 35.3567 31.8573 34.9043 32.8295 33.9083L33.5707 33.1602C33.9184 32.7964 34.2154 32.4664 34.4663 32.1651L34.808 31.7345C35.6823 30.57 35.7628 29.871 35.3891 29.2169C35.2469 28.9681 35.0398 28.6948 34.7387 28.3614L34.3295 27.9298L34.0873 27.6876L31.5356 25.2227C30.6829 24.4365 30.0999 24.3247 29.2153 24.5606L28.9594 24.6349L27.9028 24.9933C24.8359 25.9837 22.6228 25.5035 19.3647 22.2462C15.9905 18.8727 15.5944 16.6197 16.725 13.3761L16.7983 13.1681L16.9985 12.5636L17.0971 12.1788C17.2719 11.3406 17.0723 10.7558 16.1713 9.85458C16.1342 9.81748 16.0924 9.77535 16.0473 9.72958L13.6772 7.27939C13.1342 6.74409 12.7398 6.41783 12.392 6.21786Z" fill="white"/>
</svg>
