<svg width="24" height="24" viewBox="0 0 24 24" fill="none" xmlns="http://www.w3.org/2000/svg">
<path d="M11.909 0.512695C5.58226 0.512695 0.452148 5.64281 0.452148 11.9761C0.452148 18.3094 5.58226 23.4329 11.909 23.4329C18.2357 23.4329 23.3658 18.3028 23.3658 11.9761C23.3658 5.64942 18.2357 0.512695 11.909 0.512695Z" fill="white"/>
<path d="M11.9096 16.0691C14.1639 16.0691 16.0018 14.2379 16.0018 11.977C16.0018 9.716 14.1639 7.88477 11.9096 7.88477C9.65523 7.88477 7.81738 9.72261 7.81738 11.977C7.81738 14.2313 9.64862 16.0691 11.9096 16.0691ZM8.80903 11.977C8.80903 10.2647 10.1973 8.87641 11.9096 8.87641C13.6218 8.87641 15.0101 10.2647 15.0101 11.977C15.0101 13.6892 13.6218 15.0775 11.9096 15.0775C10.1973 15.0775 8.80903 13.6892 8.80903 11.977Z" fill="#0A2463"/>
<path d="M15.9753 18.7728H7.81079C6.27705 18.7728 5.03418 17.53 5.03418 15.9962V7.95727C5.03418 6.42353 6.27705 5.18066 7.81079 5.18066H15.9753C17.5091 5.18066 18.7519 6.43014 18.7519 7.95727V15.9962C18.7519 17.53 17.5091 18.7728 15.9753 18.7728ZM7.81079 6.19214C6.83898 6.19214 6.04566 6.98546 6.04566 7.95727V15.9962C6.04566 16.968 6.83898 17.7613 7.81079 17.7613H15.9753C16.9472 17.7613 17.7405 16.968 17.7405 15.9962V7.95727C17.7405 6.98546 16.9472 6.19214 15.9753 6.19214H7.81079Z" fill="#0A2463"/>
<path d="M16.0552 7.42285C15.6979 7.42285 15.4067 7.71399 15.4067 8.07129C15.4067 8.4286 15.6979 8.71974 16.0552 8.71974C16.4125 8.71974 16.7036 8.4286 16.7036 8.07129C16.7036 7.71399 16.4125 7.42285 16.0552 7.42285Z" fill="#0A2463"/>
</svg>
