<svg width="24" height="24" viewBox="0 0 24 24" fill="none" xmlns="http://www.w3.org/2000/svg">
<path d="M23.8633 11.9778C23.8633 5.65768 18.7397 0.53418 12.4197 0.53418C6.09957 0.53418 0.976074 5.65768 0.976074 11.9778C0.976074 18.2979 6.09957 23.4214 12.4197 23.4214C18.7397 23.4214 23.8633 18.2979 23.8633 11.9778Z" fill="white"/>
<path d="M9.62317 9.18848H6.97217V16.7646H9.62317V9.18848Z" fill="#0A2463"/>
<path d="M8.29445 5.40039C7.46808 5.40039 6.81359 6.16065 7.00531 7.02008C7.1177 7.52251 7.52096 7.91917 8.0234 8.01833C8.87621 8.19022 9.62326 7.54896 9.62326 6.72258C9.62326 5.99538 9.03488 5.40039 8.29445 5.40039Z" fill="#0A2463"/>
<path d="M18.3292 11.5155C18.1507 10.0876 17.4367 9.18848 15.5063 9.18848C14.1379 9.18848 13.5892 9.40003 13.2784 10.0016V9.18848H11.1299V16.7646H13.3379V12.7981C13.3379 11.8064 13.5231 11.0594 14.7461 11.0594C15.9691 11.0594 16.0484 11.9783 16.0484 12.8576V16.758H18.3226C18.3226 16.758 18.3689 11.8461 18.3226 11.5155H18.3292Z" fill="#0A2463"/>
</svg>
