<svg width="40" height="41" viewBox="0 0 40 41" fill="none" xmlns="http://www.w3.org/2000/svg">
<mask id="mask0_2006_5481" style="mask-type:luminance" maskUnits="userSpaceOnUse" x="23" y="3" width="16" height="16">
<path fill-rule="evenodd" clip-rule="evenodd" d="M23.9233 3.83398H38.155V18.0553H23.9233V3.83398Z" fill="white"/>
</mask>
<g mask="url(#mask0_2006_5481)">
<path fill-rule="evenodd" clip-rule="evenodd" d="M36.9045 18.0553C36.2762 18.0553 35.7362 17.5837 35.6645 16.9453C35.0328 11.3187 30.6628 6.95201 25.0345 6.32701C24.3495 6.25034 23.8545 5.63367 23.9312 4.94701C24.0062 4.26201 24.6178 3.75701 25.3112 3.84367C32.1078 4.59867 37.3862 9.87034 38.1478 16.6653C38.2245 17.352 37.7312 17.9703 37.0462 18.047C36.9995 18.052 36.9512 18.0553 36.9045 18.0553" fill="#D23216"/>
</g>
<path fill-rule="evenodd" clip-rule="evenodd" d="M31.0044 18.0729C30.4177 18.0729 29.8961 17.6596 29.7794 17.0629C29.2994 14.5963 27.3977 12.6946 24.9344 12.2163C24.2561 12.0846 23.8144 11.4296 23.9461 10.7513C24.0777 10.0729 24.7444 9.6296 25.4111 9.76294C28.8794 10.4363 31.5577 13.1129 32.2327 16.5829C32.3644 17.2629 31.9227 17.9179 31.2461 18.0496C31.1644 18.0646 31.0844 18.0729 31.0044 18.0729" fill="#D23216"/>
<path d="M5.60215 7.18661C8.81428 3.9742 10.9064 3.12227 13.1383 4.40536C13.7803 4.77455 14.3824 5.29195 15.2008 6.12314L17.7115 8.72665C19.0982 10.2398 19.414 11.691 18.9625 13.3907L18.9 13.6163L18.8307 13.8399L18.4957 14.8243C17.7774 17.0326 18.0766 18.2789 20.6324 20.8341C23.2902 23.4912 24.5312 23.7082 26.9098 22.877L27.3336 22.7296L27.8463 22.5636L28.0709 22.5011C29.8776 22.0191 31.4035 22.4041 33.0221 24.0216L35.0455 25.9747L35.6402 26.5606C36.3004 27.2338 36.7369 27.7674 37.0592 28.3311C38.3347 30.5625 37.4824 32.6537 34.1774 35.9464L33.8629 36.2647C33.3695 36.7402 32.9083 37.0809 32.2311 37.4024C31.0943 37.9421 29.7514 38.1457 28.191 37.9288C24.3453 37.394 19.4671 34.3596 13.2867 28.1808C12.7836 27.6778 12.3015 27.184 11.8404 26.7003L10.9459 25.7462C2.56315 16.6386 1.82339 11.0433 5.2584 7.53427L5.48106 7.31259L5.60215 7.18661ZM11.8922 6.57333C11.123 6.13105 10.2924 6.31787 8.75548 7.64071L8.27305 8.07236C8.18883 8.1501 8.10242 8.2308 8.01426 8.31454L7.46055 8.85361L7.41075 8.91611L7.03477 9.29306C6.12761 10.2197 5.69767 11.351 6.06798 13.296C6.67566 16.4877 9.45777 20.8171 15.0543 26.4122C20.8856 32.2421 25.3287 35.0063 28.5348 35.4522C30.4038 35.7122 31.3575 35.2598 32.3297 34.2638L33.0709 33.5157C33.4186 33.1519 33.7156 32.8218 33.9664 32.5206L34.3082 32.0899C35.1824 30.9255 35.2629 30.2265 34.8893 29.5724C34.747 29.3235 34.54 29.0502 34.2389 28.7169L33.8297 28.2852L33.5875 28.0431L31.0357 25.5782C30.1831 24.7919 29.6001 24.6801 28.7154 24.9161L28.4596 24.9903L27.4029 25.3487C24.3361 26.3392 22.123 25.8589 18.8649 22.6017C15.4906 19.2282 15.0946 16.9751 16.2252 13.7315L16.2984 13.5235L16.4986 12.919L16.5973 12.5343C16.7721 11.696 16.5725 11.1112 15.6715 10.2101C15.6344 10.1729 15.5926 10.1308 15.5475 10.0851L13.1774 7.63486C12.6344 7.09956 12.2399 6.77329 11.8922 6.57333Z" fill="#D23216"/>
</svg>
