<svg width="23" height="23" viewBox="0 0 23 23" fill="none" xmlns="http://www.w3.org/2000/svg">
<mask id="mask0_2006_7275" style="mask-type:luminance" maskUnits="userSpaceOnUse" x="13" y="2" width="9" height="9">
<path fill-rule="evenodd" clip-rule="evenodd" d="M13.4155 2.38379H21.1413V10.104H13.4155V2.38379Z" fill="white"/>
</mask>
<g mask="url(#mask0_2006_7275)">
<path fill-rule="evenodd" clip-rule="evenodd" d="M20.4624 10.104C20.1214 10.104 19.8282 9.84791 19.7893 9.50138C19.4464 6.44691 17.0741 4.07643 14.0187 3.73714C13.6469 3.69553 13.3782 3.36076 13.4198 2.988C13.4605 2.61614 13.7925 2.342 14.1689 2.38905C17.8585 2.79891 20.7239 5.66067 21.1374 9.34938C21.179 9.72214 20.9112 10.0578 20.5394 10.0994C20.514 10.1021 20.4878 10.104 20.4624 10.104" fill="white"/>
</g>
<path fill-rule="evenodd" clip-rule="evenodd" d="M17.2593 10.1129C16.9408 10.1129 16.6576 9.88848 16.5943 9.56458C16.3337 8.22553 15.3014 7.1932 13.9642 6.93353C13.5959 6.86205 13.3562 6.50648 13.4276 6.13825C13.4991 5.77001 13.861 5.52934 14.2229 5.60172C16.1057 5.96725 17.5597 7.42029 17.9261 9.30401C17.9976 9.67315 17.7578 10.0287 17.3905 10.1002C17.3462 10.1083 17.3027 10.1129 17.2593 10.1129" fill="white"/>
<path d="M3.4698 4.20342C5.21365 2.45941 6.34992 1.99689 7.56159 2.69366C7.91006 2.89408 8.2365 3.17508 8.68073 3.62627L10.044 5.03936C10.7967 5.86073 10.9678 6.64892 10.7227 7.57159L10.6885 7.69366L10.6514 7.81475L10.4688 8.34991C10.079 9.54849 10.2419 10.2248 11.629 11.6116C13.0718 13.0541 13.7459 13.1722 15.0372 12.721L15.2667 12.6409L15.545 12.5511L15.6671 12.5169C16.6477 12.2553 17.476 12.4643 18.3546 13.3421L19.4532 14.4026L19.7764 14.721C20.1348 15.0865 20.372 15.3759 20.5469 15.6819C21.2393 16.8932 20.7765 18.0284 18.9825 19.8157L18.8116 19.9886C18.5437 20.2467 18.2935 20.4322 17.9259 20.6067C17.3088 20.8997 16.5796 21.0097 15.7325 20.8919C13.6448 20.6016 10.9968 18.9542 7.64167 15.5999C7.36865 15.327 7.10674 15.0597 6.85651 14.7972L6.37116 14.2786C1.82034 9.3343 1.4183 6.29676 3.28327 4.3919L3.40437 4.27178L3.4698 4.20342ZM6.88484 3.87041C6.46727 3.63029 6.01608 3.73235 5.18171 4.45049L4.91999 4.68487C4.87435 4.727 4.82714 4.77035 4.77937 4.81573L4.47859 5.1087L4.45124 5.14288L4.24812 5.34795C3.75562 5.85101 3.52169 6.46493 3.72273 7.5208C4.05274 9.25339 5.56276 11.6038 8.60066 14.6409C11.7663 17.8057 14.1786 19.3061 15.919 19.5481C16.9336 19.6892 17.4508 19.4433 17.9786 18.9026L18.3809 18.4964C18.5697 18.2989 18.7311 18.1199 18.8673 17.9564L19.0538 17.723C19.5284 17.0907 19.5712 16.7109 19.3682 16.3558C19.291 16.2207 19.1782 16.0729 19.0147 15.8919L18.793 15.6575L18.6622 15.5257L17.2764 14.1878C16.8136 13.7611 16.4969 13.7003 16.0167 13.8284L15.878 13.8685L15.3048 14.0638C13.64 14.6014 12.4385 14.3405 10.67 12.5726C8.83826 10.7413 8.62273 9.51785 9.2364 7.75713L9.27644 7.64385L9.38484 7.31573L9.43855 7.10674C9.53346 6.65168 9.4248 6.33429 8.93562 5.84502C8.91561 5.82502 8.8935 5.80228 8.86921 5.77764L7.5821 4.44756C7.28735 4.15698 7.0736 3.97897 6.88484 3.87041Z" fill="white"/>
</svg>
