<svg width="68" height="76" viewBox="0 0 68 76" fill="none" xmlns="http://www.w3.org/2000/svg">
<path d="M49.7158 0.5C61.2995 0.5 67.7499 7.17492 67.75 18.6123V57.3496C67.75 68.9746 61.2996 75.5 49.7158 75.5H18.2871C6.88735 75.4999 0.25 68.9745 0.25 57.3496V18.6123C0.250075 7.17505 6.88741 0.500152 18.2871 0.5H49.7158ZM19.2998 52.0254C18.1749 51.913 17.0872 52.4382 16.4873 53.4131C15.8877 54.3505 15.8875 55.5877 16.4873 56.5625C17.0872 57.4998 18.175 58.0629 19.2998 57.9131H48.6992C50.1952 57.7631 51.3238 56.4842 51.3242 54.9883C51.3242 53.4508 50.1955 52.1754 48.6992 52.0254H19.2998ZM19.2998 34.9219C17.6837 34.9221 16.375 36.2382 16.375 37.8506C16.3753 39.4627 17.6839 40.7752 19.2998 40.7754H48.6992C50.3115 40.7754 51.6247 39.4628 51.625 37.8506C51.625 36.2381 50.3117 34.9219 48.6992 34.9219H19.2998ZM19.2998 17.9375V17.9756C17.6837 17.9758 16.375 19.288 16.375 20.9004C16.3752 22.5126 17.6839 23.825 19.2998 23.8252H30.5088C32.1246 23.825 33.4372 22.5127 33.4375 20.8594C33.4375 19.2508 32.1248 17.9377 30.5088 17.9375H19.2998Z" fill="#EB0101" fill-opacity="0.8"/>
</svg>
