<svg width="24" height="24" viewBox="0 0 24 24" fill="none" xmlns="http://www.w3.org/2000/svg">
<path d="M20.1984 3.39554L3.14711 10.4923C3.14711 10.4923 2.34095 10.7854 2.40335 11.3259C2.46743 11.8673 3.12527 12.115 3.12527 12.115L7.41575 13.6467C7.41575 13.6467 8.71079 18.1519 8.96567 19.0092C9.22055 19.8641 9.42503 19.8843 9.42503 19.8843C9.66239 19.9937 9.87815 19.8195 9.87815 19.8195L12.6501 17.1389L16.9704 20.653C18.1389 21.1937 18.5642 20.0671 18.5642 20.0671L21.6 3.82442C21.6 2.7425 20.1984 3.39554 20.1984 3.39554ZM17.1797 18.7608L12.5577 15.0024L11.1235 16.3889L11.4389 13.4391L17.5997 7.6001L9.20183 12.5859L5.47679 11.2563L19.6889 5.34074L17.1797 18.7608Z" fill="white"/>
</svg>
