<svg width="40" height="38" viewBox="0 0 40 38" fill="none" xmlns="http://www.w3.org/2000/svg">
<path d="M37.0802 1.074L1.55668 15.859C1.55668 15.859 -0.122825 16.4695 0.00717545 17.5955C0.140675 18.7235 1.51118 19.2395 1.51118 19.2395L10.4497 22.4305C10.4497 22.4305 13.1477 31.8165 13.6787 33.6025C14.2097 35.3835 14.6357 35.4255 14.6357 35.4255C15.1302 35.6535 15.5797 35.2905 15.5797 35.2905L21.3547 29.706L30.3552 37.027C32.7897 38.1535 33.6757 35.8065 33.6757 35.8065L40.0002 1.9675C40.0002 -0.2865 37.0802 1.074 37.0802 1.074ZM30.7912 33.085L21.1622 25.255L18.1742 28.1435L18.8312 21.998L31.6662 9.8335L14.1707 20.2205L6.41018 17.4505L36.0187 5.1265L30.7912 33.085Z" fill="white"/>
</svg>
