<svg width="30" height="31" viewBox="0 0 30 31" fill="none" xmlns="http://www.w3.org/2000/svg">
<path d="M25.248 4.74443L3.9339 13.6154C3.9339 13.6154 2.9262 13.9817 3.0042 14.6573C3.0843 15.3341 3.9066 15.6437 3.9066 15.6437L9.2697 17.5583C9.2697 17.5583 10.8885 23.1899 11.2071 24.2615C11.5257 25.3301 11.7813 25.3553 11.7813 25.3553C12.078 25.4921 12.3477 25.2743 12.3477 25.2743L15.8127 21.9236L21.213 26.3162C22.6737 26.9921 23.2053 25.5839 23.2053 25.5839L27 5.28053C27 3.92813 25.248 4.74443 25.248 4.74443ZM21.4746 23.951L15.6972 19.253L13.9044 20.9861L14.2986 17.2988L21.9996 10.0001L11.5023 16.2323L6.846 14.5703L24.6111 7.17593L21.4746 23.951Z" fill="white"/>
</svg>
