<svg width="24" height="24" viewBox="0 0 24 24" fill="none" xmlns="http://www.w3.org/2000/svg">
<path d="M23.0971 11.9778C23.0971 5.65768 17.9736 0.53418 11.6535 0.53418C5.33346 0.53418 0.209961 5.65768 0.209961 11.9778C0.209961 18.2979 5.33346 23.4214 11.6535 23.4214C17.9736 23.4214 23.0971 18.2979 23.0971 11.9778Z" fill="white"/>
<path d="M18.2975 8.54688C17.8413 8.73199 17.3455 8.8576 16.8365 8.91709C17.3786 8.59977 17.8017 8.10395 18.0198 7.50896C18.033 7.46929 17.9934 7.43624 17.9603 7.45607C17.4513 7.74034 16.8893 7.95189 16.2944 8.06428C15.7853 7.52879 15.0647 7.19824 14.2648 7.19824C12.7311 7.19824 11.4816 8.42788 11.4816 9.93518C11.4816 10.1533 11.508 10.3583 11.5543 10.5566C9.24707 10.4442 7.20428 9.36003 5.83581 7.7139C5.8292 7.70729 5.81597 7.70729 5.80936 7.7139C5.57798 8.11056 5.44576 8.57332 5.44576 9.06915C5.44576 10.0013 5.91514 10.8211 6.63573 11.3169C6.64895 11.3301 6.64234 11.3499 6.62251 11.3499C6.19941 11.3301 5.79614 11.2111 5.44576 11.026C5.43915 11.0194 5.42593 11.026 5.42593 11.0392C5.43254 11.1582 5.4722 11.6937 5.61103 12.0441C5.96141 12.8969 6.71507 13.5514 7.65382 13.7365C7.41583 13.796 7.17122 13.8357 6.92 13.8357C6.74812 13.8357 6.58285 13.8158 6.41757 13.7894C6.40435 13.7894 6.39774 13.796 6.39774 13.8092C6.75473 14.867 7.75299 15.6471 8.94296 15.6867C8.95618 15.6867 8.96279 15.7066 8.94957 15.7198C8.0042 16.4404 6.82084 16.8635 5.5317 16.8635C5.30693 16.8635 5.08877 16.8503 4.87061 16.8238C6.10025 17.5973 7.56127 18.0535 9.13468 18.0535C11.2965 18.0535 13.0484 17.3064 14.3441 16.1759C15.6531 15.0322 16.5059 13.4919 16.8563 11.9185C16.9819 11.3632 17.048 10.8078 17.048 10.2657C17.048 10.1467 17.048 10.0277 17.0414 9.90874C17.5438 9.55175 17.9868 9.10881 18.3438 8.61299C18.3702 8.57994 18.3305 8.53366 18.2909 8.55349L18.2975 8.54688Z" fill="#0A2463"/>
</svg>
