<svg width="30" height="31" viewBox="0 0 30 31" fill="none" xmlns="http://www.w3.org/2000/svg">
<path fill-rule="evenodd" clip-rule="evenodd" d="M12.2975 9.53011C12.048 8.86666 11.7598 8.914 11.568 8.90673C11.376 8.89964 11.2079 8.90316 10.9485 8.90738C10.729 8.91095 10.3694 8.9675 10.056 9.28314C9.74209 9.59826 8.86265 10.3561 8.80183 11.9623C8.74142 13.5683 9.86121 15.1641 10.0176 15.3874C10.1739 15.6116 12.1559 19.0927 15.4503 20.5244C18.7451 21.9556 18.7624 21.5193 19.3668 21.4873C19.9717 21.4557 21.3429 20.7698 21.646 20.0182C21.949 19.2666 21.9734 18.6132 21.8962 18.4738C21.8191 18.3349 21.6033 18.2446 21.2804 18.0695C20.9572 17.894 19.3706 17.0442 19.073 16.924C18.7753 16.8042 18.5582 16.7419 18.3264 17.0605C18.0946 17.3782 17.4363 18.0899 17.2368 18.3008C17.0364 18.5117 16.8436 18.5313 16.5204 18.3553C16.1982 18.1802 15.1509 17.7958 13.9366 16.6375C12.9917 15.7363 12.3715 14.6428 12.1917 14.3092C12.0119 13.9754 12.1905 13.8051 12.3616 13.6489C12.515 13.5079 12.7048 13.2797 12.8768 13.0953C13.0478 12.9108 13.1082 12.7771 13.2261 12.563C13.3437 12.3495 13.2964 12.1569 13.2201 11.9905C13.1437 11.8242 12.5469 10.1936 12.2975 9.53011Z" fill="white"/>
<path d="M15.238 4.25C18.1823 4.25 20.9496 5.38684 23.0299 7.45109C25.1064 9.51148 26.25 12.25 26.25 15.162C26.25 18.0738 25.1064 20.8122 23.0299 22.8727C20.9494 24.9371 18.1822 26.0741 15.238 26.0741C13.3744 26.0741 11.5325 25.604 9.91148 24.7147L9.20736 24.3284L8.44195 24.5715L4.84125 25.7154L5.9765 22.3668L6.25764 21.5376L5.8023 20.7898C4.77146 19.0965 4.2266 17.1505 4.2266 15.162C4.2266 12.25 5.37023 9.51148 7.44674 7.45103C9.52711 5.38684 12.2941 4.25 15.238 4.25ZM15.238 2.375C8.12139 2.375 2.3516 8.09967 2.3516 15.162C2.3516 17.5778 3.0273 19.8373 4.20076 21.7648L1.875 28.625L9.00961 26.3585C10.8558 27.3713 12.979 27.9491 15.238 27.9491C22.3556 27.9491 28.125 22.2236 28.125 15.162C28.125 8.09967 22.3556 2.375 15.238 2.375Z" fill="white"/>
</svg>
