<svg width="24" height="24" viewBox="0 0 24 24" fill="none" xmlns="http://www.w3.org/2000/svg">
<path fill-rule="evenodd" clip-rule="evenodd" d="M9.83795 7.22363C9.63836 6.69286 9.40783 6.73074 9.25436 6.72492C9.10075 6.71925 8.96626 6.72206 8.75875 6.72544C8.58315 6.7283 8.29553 6.77353 8.04475 7.02605C7.79364 7.27814 7.09009 7.88442 7.04144 9.16941C6.99311 10.4542 7.88894 11.7308 8.01405 11.9095C8.13906 12.0888 9.7247 14.8737 12.3602 16.019C14.9961 17.164 15.0099 16.815 15.4934 16.7894C15.9774 16.7641 17.0743 16.2154 17.3168 15.6141C17.5592 15.0128 17.5787 14.4901 17.517 14.3786C17.4553 14.2674 17.2826 14.1953 17.0243 14.0551C16.7657 13.9148 15.4964 13.2349 15.2584 13.1387C15.0202 13.0429 14.8465 12.993 14.6611 13.2479C14.4756 13.5021 13.949 14.0715 13.7894 14.2402C13.6291 14.4089 13.4748 14.4246 13.2163 14.2838C12.9585 14.1437 12.1207 13.8362 11.1492 12.9095C10.3933 12.1886 9.89716 11.3138 9.75334 11.0469C9.60948 10.7798 9.7524 10.6436 9.88928 10.5187C10.012 10.4058 10.1638 10.2233 10.3014 10.0757C10.4382 9.92817 10.4865 9.8212 10.5808 9.64997C10.6749 9.47911 10.6371 9.32503 10.576 9.19195C10.515 9.05892 10.0375 7.75439 9.83795 7.22363Z" fill="white"/>
<path d="M12.1904 3C14.5458 3 16.7597 3.90947 18.4239 5.56087C20.0851 7.20919 21 9.39998 21 11.7296C21 14.059 20.0851 16.2498 18.4239 17.8982C16.7595 19.5497 14.5457 20.4593 12.1904 20.4593C10.6995 20.4593 9.22603 20.0832 7.92919 19.3717L7.36589 19.0627L6.75356 19.2572L3.873 20.1723L4.7812 17.4934L5.00611 16.8301L4.64184 16.2318C3.81717 14.8772 3.38128 13.3204 3.38128 11.7296C3.38128 9.39998 4.29619 7.20919 5.95739 5.56083C7.62169 3.90947 9.83527 3 12.1904 3ZM12.1904 1.5C6.49711 1.5 1.88128 6.07973 1.88128 11.7296C1.88128 13.6622 2.42184 15.4698 3.36061 17.0118L1.5 22.5L7.20769 20.6868C8.68463 21.497 10.3832 21.9592 12.1904 21.9592C17.8845 21.9592 22.5 17.3789 22.5 11.7296C22.5 6.07973 17.8845 1.5 12.1904 1.5Z" fill="white"/>
</svg>
