<svg width="131" height="120" viewBox="0 0 131 120" fill="none" xmlns="http://www.w3.org/2000/svg">
<path d="M30.3157 79.4075L30.2111 79.0429C29.4673 76.8334 30.2046 74.426 31.1367 72.3755C29.6686 70.9221 28.109 69.6632 26.394 68.465L25.994 68.655C25.0712 69.1069 22.9908 69.2692 21.9234 68.9777L21.9401 68.8948C22.132 68.7641 22.3144 68.8912 22.4775 68.7598L22.3244 68.4808C21.7627 67.5729 20.8615 67.7499 19.8686 67.5581L13.407 66.246C10.6323 65.5588 11.5987 63.1189 11.8855 61.2304L16.2268 31.3665C16.7401 26.8294 16.7537 22.2754 21.6579 19.7265C25.132 17.9209 29.4205 18.2544 33.1194 19.2191C37.8301 20.448 45.8196 24.938 45.1099 30.0444C44.945 31.2315 44.2722 31.2797 45.4993 31.9485C48.8817 33.7925 52.8766 33.7869 56.5485 32.766L61.9953 31.0492C66.8563 29.7172 71.4638 29.4995 76.3075 30.8694C78.6014 31.5182 80.9334 32.6859 83.3693 32.7006C85.6415 32.714 85.9326 31.9509 86.9912 30.1935L86.9679 29.9212C86.8391 27.5717 88.5498 24.7734 90.2148 23.1032C93.7257 19.5816 99.2592 17.1558 104.404 16.9735C109.274 16.5239 114.217 18.7944 115.908 23.2254C116.494 24.7603 116.547 26.3644 116.68 27.969L119.886 60.2057C120.036 63.104 118.691 63.0469 115.955 63.6594C113.86 64.1284 111.716 64.5208 109.657 65.1082C107.059 65.8492 107.905 66.9313 104.965 65.5217C103.705 66.3945 102.816 67.7717 101.647 68.7634C101.467 68.9166 101.714 69.1432 101.799 69.3309C103.225 72.5014 103.337 76.7479 99.9951 78.9298C99.4278 79.3001 98.79 79.5656 98.1666 79.8442L98.118 80.1979C97.6547 83.0274 95.545 86.1418 92.4039 86.9462C91.7373 87.117 90.9248 86.9257 90.5929 87.4464L90.1021 88.1831C88.1198 91.0012 85.1698 92.0792 81.57 91.5737C81.1967 92.3062 80.4051 93.0347 79.799 93.6244C76.9085 96.4365 72.3957 97.6824 68.293 96.791L66.6131 96.3484C66.0826 96.1963 66.2152 96.162 65.7933 96.4783C63.6753 98.0664 60.6297 99.4974 57.8932 99.5512C53.0594 99.6461 49.6542 96.4584 49.6075 92.0752L48.51 92.4444C44.4331 93.537 40.7021 91.2386 39.5156 87.6124L39.0452 85.8984C38.9079 85.4704 38.9764 85.427 38.5165 85.335L37.4688 85.1156C34.0339 84.3069 31.3965 82.7002 30.3157 79.4075ZM104.416 21.4376L111.046 34.2345C111.313 34.7715 111.558 35.3501 111.897 35.8505L110.83 28.9991C110.103 24.3696 110.011 21.9763 104.416 21.4376ZM26.112 22.9277C21.4509 23.6 22.1269 27.3502 21.7121 30.6116L21.1408 34.3367C21.0691 34.796 20.9267 35.3184 20.9366 35.7793L21.3226 34.967L26.4921 24.4858C27.0405 23.3415 27.6406 22.8527 26.112 22.9277ZM99.1475 23.1152L92.2629 27.3283C92.5997 29.8753 93.8658 32.2584 95.0177 34.5681L104.357 53.438C105.544 55.8549 106.882 58.2463 107.909 60.7236L111.422 59.7583C112.479 59.4891 113.555 59.2024 114.638 59.0364C114.422 54.4892 113.107 50.2211 111.129 46.089L102.37 28.833C101.397 26.9031 100.436 24.9617 99.2927 23.1109L99.1475 23.1152ZM32.5379 23.8601L20.2007 49.4432C19.0773 51.6936 18.8144 51.8647 18.3803 54.4157L17.409 60.8188C17.377 61.0828 17.2857 61.4409 17.3358 61.6984L23.6985 63.2209L24.0416 62.544L39.2494 30.3997C39.4665 29.9482 39.8431 29.312 39.8792 28.815C38.5729 26.8059 34.8405 24.5392 32.5379 23.8601ZM69.0015 34.5161C64.5577 34.8433 62.3575 35.5894 58.493 37.1917C56.9025 37.8514 56.228 37.9886 55.4961 39.495C54.6627 41.2102 54.671 43.1467 54.4366 44.9841L53.8685 48.3647C53.669 49.3146 53.4577 50.2847 53.1661 51.2143L52.4825 53.1962C54.4352 52.2261 56.517 49.6564 57.6787 48.0039C58.7599 46.4662 59.4826 45.0463 61.1428 43.9757L61.1539 43.9003C61.2579 43.2516 61.6152 42.7871 62.182 42.4052C66.0194 39.819 70.492 41.3027 73.6876 43.9378L76.9778 46.7036L86.4739 53.7103C90.575 56.8417 95.5597 60.9557 98.6894 64.9614L98.7684 64.8752C99.4113 64.1792 100.149 63.4879 100.899 62.8907C101.266 62.5976 101.977 62.2303 102.25 61.8864L100.908 59.4714L90.2677 38.3722C89.8592 37.5919 89.4537 36.6617 88.8752 35.9784C83.4855 39.4657 77.9954 35.2849 72.5549 34.6239C71.3681 34.4799 70.1948 34.4996 69.0015 34.5161ZM43.0305 35.8423L29.1839 64.4974L34.2102 68.4834C35.2559 68.0344 36.1834 67.3444 37.1923 66.8274C42.1882 64.2673 48.1903 63.8342 50.8917 69.2653C51.3467 70.1801 51.3302 71.0647 51.2733 72.0514C52.7624 71.6149 54.633 71.3657 56.1372 71.8974C60.5291 73.4497 61.2793 76.7064 60.5212 80.6421C62.8157 80.5875 64.9989 80.9045 66.7348 82.4244C70.1126 85.3822 69.7916 88.7812 68.0484 92.2669C72.4723 93.0002 74.3489 92.5425 77.0741 89.2601L65.7354 79.2022C64.3788 78.0236 62.03 76.1355 63.8344 74.3555C65.9178 72.3004 67.4963 74.5719 68.8766 75.7596L79.5037 85.2127C80.1583 85.7904 80.8837 86.5117 81.684 86.9081C82.7279 87.4251 85.301 87.3844 85.2543 85.8489C85.2253 84.8927 76.9967 77.8239 75.963 76.9761L74.5809 75.8874C73.9665 75.4447 73.2234 75.0112 72.8111 74.3848C71.6919 72.6836 72.9157 70.8529 75.1352 70.9003L75.2238 70.9179C77.4454 71.3874 84.9653 78.4597 86.5456 80.0531L88.029 81.6409C88.9872 82.718 89.5862 83.6077 91.1774 82.6944C91.9304 82.2622 92.6467 81.5295 92.8473 80.7129C93.3917 78.4971 84.1802 71.433 82.4577 70.2341L79.8593 68.5057C79.2963 68.1264 78.682 67.7314 78.2264 67.2422C76.7696 65.6781 78.476 63.2831 80.6479 63.7712C82.6566 64.2229 91.2278 70.7934 92.7962 72.1301C93.8467 73.0256 94.765 74.1647 95.8887 74.9642C96.6021 74.405 97.6297 73.7623 97.7392 72.8329C97.9356 71.1645 95.1223 68.0417 94.0023 66.8263L90.8766 63.7412C87.0134 60.0889 82.8345 56.8547 78.552 53.6357L72.7776 49.1809C69.3236 46.167 68.8715 44.9507 65.1411 48.1202C64.5931 48.5859 64.2457 49.1497 63.8244 49.7089L61.9376 52.1119C59.1493 55.3991 53.3208 60.4303 48.5021 60.2705C46.1808 60.1937 44.0967 58.8862 44.242 56.5581C44.3059 55.5321 45.079 54.6409 45.6486 53.8016L46.8229 51.9144C48.3412 49.1927 49.161 46.3813 49.4897 43.3333C49.679 41.5768 49.7414 39.7731 50.2807 38.0707C49.9764 37.9513 49.5707 37.9226 49.2433 37.866C47.0384 37.4842 45.0729 36.6814 43.0305 35.8423ZM42.4083 69.7987C39.4972 70.4023 34.5277 75.5402 35.2813 78.3819C35.5452 79.3775 36.5876 80.4221 37.7925 80.064L38.1561 79.9346C39.6871 79.1469 45.01 74.5072 45.4475 72.9437C45.9515 71.1433 44.2373 69.7266 42.4083 69.7987ZM53.0968 76.1289C51.0661 76.4304 49.7777 77.5123 48.4501 78.8784C46.699 80.6803 43.7014 83.9809 44.1172 86.4152C44.3149 87.5726 45.3382 88.1314 46.5296 87.9251C49.2004 86.9212 53.7551 82.1966 54.9422 79.5675C55.761 77.7536 55.8503 75.8304 53.0968 76.1289ZM61.5511 85.22C58.4089 85.5214 54.5904 89.9535 54.9064 92.6992C55.0571 94.0086 55.6769 94.6078 57.0567 94.6532C58.8367 94.2195 61.7081 91.4694 62.6867 89.9353C63.574 88.5446 64.566 84.894 61.5511 85.22Z" fill="#D50000"/>
</svg>
