<svg width="95" height="95" viewBox="0 0 95 95" fill="none" xmlns="http://www.w3.org/2000/svg">
<path d="M74.9201 20.2839C69.5285 14.8607 62.6482 11.1601 55.1513 9.65108C47.6544 8.14202 39.8782 8.89245 32.8082 11.8073C25.7382 14.7221 19.6925 19.67 15.4374 26.0242C11.1823 32.3783 8.90924 39.8526 8.90625 47.4999V68.2812C8.90625 70.6433 9.84458 72.9086 11.5148 74.5789C13.1851 76.2491 15.4504 77.1874 17.8125 77.1874H23.75C26.1121 77.1874 28.3774 76.2491 30.0477 74.5789C31.7179 72.9086 32.6563 70.6433 32.6563 68.2812V53.4374C32.6563 51.0754 31.7179 48.81 30.0477 47.1398C28.3774 45.4695 26.1121 44.5312 23.75 44.5312H14.9773C15.5499 38.3411 17.875 32.4425 21.6801 27.5266C25.4853 22.6107 30.6128 18.8813 36.4618 16.7755C42.3108 14.6696 48.6388 14.2746 54.7043 15.6368C60.7697 16.9989 66.3213 20.0617 70.7082 24.4662C76.0701 29.8556 79.3682 36.9574 80.0264 44.5312H71.25C68.8879 44.5312 66.6226 45.4695 64.9523 47.1398C63.2821 48.81 62.3438 51.0754 62.3438 53.4374V68.2812C62.3438 70.6433 63.2821 72.9086 64.9523 74.5789C66.6226 76.2491 68.8879 77.1874 71.25 77.1874H80.1563C80.1563 79.5495 79.2179 81.8149 77.5477 83.4851C75.8774 85.1554 73.6121 86.0937 71.25 86.0937H50.4688C49.6814 86.0937 48.9263 86.4065 48.3695 86.9632C47.8128 87.52 47.5 88.2751 47.5 89.0624C47.5 89.8498 47.8128 90.6049 48.3695 91.1617C48.9263 91.7184 49.6814 92.0312 50.4688 92.0312H71.25C75.1868 92.0312 78.9624 90.4673 81.7461 87.6836C84.5299 84.8998 86.0938 81.1243 86.0938 77.1874V47.4999C86.1131 42.4515 85.1361 37.4488 83.2187 32.7786C81.3013 28.1084 78.4813 23.8624 74.9201 20.2839ZM23.75 50.4687C24.5374 50.4687 25.2925 50.7815 25.8492 51.3382C26.406 51.895 26.7188 52.6501 26.7188 53.4374V68.2812C26.7188 69.0686 26.406 69.8237 25.8492 70.3804C25.2925 70.9372 24.5374 71.25 23.75 71.25H17.8125C17.0251 71.25 16.27 70.9372 15.7133 70.3804C15.1565 69.8237 14.8438 69.0686 14.8438 68.2812V50.4687H23.75ZM71.25 71.25C70.4626 71.25 69.7075 70.9372 69.1508 70.3804C68.594 69.8237 68.2813 69.0686 68.2813 68.2812V53.4374C68.2813 52.6501 68.594 51.895 69.1508 51.3382C69.7075 50.7815 70.4626 50.4687 71.25 50.4687H80.1563V71.25H71.25Z" fill="#D50000"/>
</svg>
