<svg width="101" height="100" viewBox="0 0 101 100" fill="none" xmlns="http://www.w3.org/2000/svg">
<path fill-rule="evenodd" clip-rule="evenodd" d="M6.75 87.4938V59.3688C6.75 55.9188 9.54688 53.1188 13 53.1188C16.4688 53.1188 22.0312 53.1188 25.5 53.1188C28.9531 53.1188 31.75 55.9188 31.75 59.3688V87.4938C31.75 90.9469 28.9531 93.7438 25.5 93.7438C22.0312 93.7438 16.4688 93.7438 13 93.7438C9.54688 93.7438 6.75 90.9469 6.75 87.4938ZM69.25 87.4938V37.4938C69.25 35.8375 69.9094 34.2469 71.0813 33.075C72.2531 31.9031 73.8438 31.2438 75.5 31.2438C78.9688 31.2438 84.5312 31.2438 88 31.2438C89.6562 31.2438 91.2469 31.9031 92.4187 33.075C93.5906 34.2469 94.25 35.8375 94.25 37.4938V87.4938C94.25 89.1531 93.5906 90.7407 92.4187 91.9125C91.2469 93.0875 89.6562 93.7438 88 93.7438C84.5312 93.7438 78.9688 93.7438 75.5 93.7438C72.0469 93.7438 69.25 90.9469 69.25 87.4938Z" fill="#D50000"/>
<path fill-rule="evenodd" clip-rule="evenodd" d="M94.25 87.5C94.25 87.5313 63 87.5 63 87.5C63 87.5 63 55.3969 63 46.875C63 45.2188 62.3406 43.6282 61.1687 42.4563C59.9969 41.2844 58.4062 40.625 56.75 40.625C53.2812 40.625 47.7188 40.625 44.25 40.625C42.5938 40.625 41.0031 41.2844 39.8313 42.4563C38.6594 43.6282 38 45.2188 38 46.875V87.5H6.75C5.025 87.5 3.625 88.9 3.625 90.625C3.625 92.35 5.025 93.75 6.75 93.75H94.25C95.975 93.75 97.375 92.35 97.375 90.625C97.375 88.9 95.975 87.5 94.25 87.5ZM56.75 87.5H44.25V46.875H56.75V87.5ZM64.7219 12.6688L11.6625 37.8C10.1031 38.5406 9.4375 40.4031 10.175 41.9625C10.9156 43.5219 12.7781 44.1875 14.3375 43.45L67.8781 18.0875L66.9719 19.7781C66.1531 21.2969 66.725 23.1938 68.2438 24.0094C69.7656 24.825 71.6594 24.2531 72.475 22.7344L78.2531 11.9781C78.75 11.0531 78.75 9.94377 78.25 9.01877C77.7531 8.09377 76.825 7.48127 75.7812 7.38752L63.2812 6.26252C61.5625 6.1094 60.0438 7.37815 59.8875 9.09377C59.7344 10.8125 61.0031 12.3313 62.7188 12.4875L64.7219 12.6688Z" fill="#D50000"/>
</svg>
