<svg width="101" height="101" viewBox="0 0 101 101" fill="none" xmlns="http://www.w3.org/2000/svg">
<path d="M79.6666 38C79.6666 44.0417 77.8749 49.5834 74.7916 54.2084C70.2916 60.8751 63.1666 65.5834 54.8749 66.7917C53.4583 67.0417 51.9999 67.1667 50.4999 67.1667C48.9999 67.1667 47.5416 67.0417 46.1249 66.7917C37.8333 65.5834 30.7083 60.8751 26.2083 54.2084C23.1249 49.5834 21.3333 44.0417 21.3333 38C21.3333 21.875 34.3749 8.83337 50.4999 8.83337C66.6249 8.83337 79.6666 21.875 79.6666 38Z" stroke="#D50000" stroke-width="7" stroke-linecap="round" stroke-linejoin="round"/>
<path d="M89.0417 77.4584L82.1667 79.0833C80.625 79.4583 79.4167 80.6251 79.0833 82.1667L77.625 88.2917C76.8333 91.6251 72.5833 92.6251 70.375 90.0001L50.5 67.1667L30.625 90.0417C28.4167 92.6667 24.1667 91.6666 23.375 88.3333L21.9167 82.2083C21.5417 80.6666 20.3333 79.4583 18.8333 79.125L11.9583 77.5001C8.79167 76.7501 7.66667 72.7916 9.95834 70.5L26.2083 54.25C30.7083 60.9167 37.8333 65.6251 46.125 66.8334C47.5417 67.0834 49 67.2084 50.5 67.2084C52 67.2084 53.4583 67.0834 54.875 66.8334C63.1667 65.6251 70.2917 60.9167 74.7917 54.25L91.0417 70.5C93.3333 72.75 92.2083 76.7084 89.0417 77.4584Z" stroke="#D50000" stroke-width="7" stroke-linecap="round" stroke-linejoin="round"/>
<path d="M52.9167 25.4166L55.3751 30.3333C55.7084 30.9999 56.5834 31.6666 57.375 31.7916L61.8334 32.5416C64.6667 32.9999 65.3334 35.0833 63.2917 37.1249L59.8334 40.5832C59.2501 41.1666 58.9167 42.2916 59.125 43.125L60.1251 47.4166C60.9167 50.7916 59.1251 52.1249 56.1251 50.3332L51.9584 47.8749C51.2084 47.4166 49.9584 47.4166 49.2084 47.8749L45.0417 50.3332C42.0417 52.0832 40.25 50.7916 41.0417 47.4166L42.0417 43.125C42.2084 42.3333 41.9167 41.1666 41.3334 40.5832L37.8751 37.1249C35.8334 35.0833 36.5 33.0416 39.3334 32.5416L43.7917 31.7916C44.5417 31.6666 45.4167 30.9999 45.75 30.3333L48.2084 25.4166C49.4167 22.75 51.5834 22.75 52.9167 25.4166Z" stroke="#D50000" stroke-width="7" stroke-linecap="round" stroke-linejoin="round"/>
</svg>
