<svg width="120" height="120" viewBox="0 0 120 120" fill="none" xmlns="http://www.w3.org/2000/svg">
<path d="M100.781 59.7656H89.5312C89.5312 56.7819 88.346 53.9205 86.2362 51.8107C84.1264 49.7009 81.2649 48.5156 78.2812 48.5156C75.2976 48.5156 72.4361 49.7009 70.3263 51.8107C68.2165 53.9205 67.0312 56.7819 67.0312 59.7656H59.5312V47.5031C59.5312 46.8429 59.3568 46.1944 59.0258 45.6232C58.6948 45.0519 58.2188 44.5782 57.646 44.2499C57.0731 43.9216 56.4238 43.7504 55.7636 43.7535C55.1034 43.7566 54.4557 43.9339 53.886 44.2676C53.3158 44.595 52.6695 44.7668 52.012 44.7656C51.3545 44.7645 50.7089 44.5904 50.1398 44.261C49.5708 43.9316 49.0984 43.4583 48.77 42.8887C48.4415 42.3191 48.2687 41.6731 48.2687 41.0156C48.2687 40.3581 48.4415 39.7122 48.77 39.1425C49.0984 38.5729 49.5708 38.0997 50.1398 37.7702C50.7089 37.4408 51.3545 37.2668 52.012 37.2656C52.6695 37.2645 53.3158 37.4362 53.886 37.7636C54.4557 38.0973 55.1034 38.2747 55.7636 38.2778C56.4238 38.2809 57.0731 38.1096 57.646 37.7813C58.2188 37.453 58.6948 36.9793 59.0258 36.4081C59.3568 35.8369 59.5312 35.1883 59.5312 34.5281V18.5156C59.5312 17.5211 59.1362 16.5672 58.4329 15.864C57.7296 15.1607 56.7758 14.7656 55.7812 14.7656H18.2812C15.2986 14.7689 12.439 15.9552 10.3299 18.0643C8.22084 20.1734 7.03453 23.0329 7.03125 26.0156V101.016C7.03453 103.998 8.22084 106.858 10.3299 108.967C12.439 111.076 15.2986 112.262 18.2812 112.266H93.2812C96.2639 112.262 99.1235 111.076 101.233 108.967C103.342 106.858 104.528 103.998 104.531 101.016V63.5156C104.531 62.5211 104.136 61.5672 103.433 60.864C102.73 60.1607 101.776 59.7656 100.781 59.7656ZM14.5312 26.0156C14.5325 25.0215 14.928 24.0684 15.631 23.3654C16.334 22.6624 17.2871 22.2669 18.2812 22.2656H52.0312V29.7656C49.0476 29.7656 46.1861 30.9509 44.0763 33.0607C41.9665 35.1705 40.7812 38.0319 40.7812 41.0156C40.7812 43.9993 41.9665 46.8608 44.0763 48.9706C46.1861 51.0804 49.0476 52.2656 52.0312 52.2656V59.7656H39.7687C39.1085 59.7657 38.46 59.94 37.8888 60.2711C37.3176 60.6021 36.8439 61.0781 36.5156 61.6509C36.1873 62.2237 36.016 62.8731 36.0191 63.5333C36.0222 64.1935 36.1996 64.8412 36.5332 65.4109C36.8607 65.9811 37.0324 66.6273 37.0312 67.2848C37.0301 67.9424 36.8561 68.588 36.5266 69.157C36.1972 69.7261 35.724 70.1985 35.1543 70.5269C34.5847 70.8553 33.9388 71.0282 33.2812 71.0282C32.6237 71.0282 31.9778 70.8553 31.4082 70.5269C30.8385 70.1985 30.3653 69.7261 30.0359 69.157C29.7064 68.588 29.5324 67.9424 29.5313 67.2848C29.5301 66.6273 29.7018 65.9811 30.0293 65.4109C30.3629 64.8412 30.5403 64.1935 30.5434 63.5333C30.5465 62.8731 30.3752 62.2237 30.0469 61.6509C29.7186 61.0781 29.2449 60.6021 28.6737 60.2711C28.1025 59.94 27.454 59.7657 26.7938 59.7656H14.5312V26.0156ZM53.9171 89.2493C53.3441 89.5775 52.8679 90.0513 52.5368 90.6227C52.2056 91.194 52.0312 91.8427 52.0312 92.5031V104.766H18.2812C17.2871 104.764 16.334 104.369 15.631 103.666C14.928 102.963 14.5325 102.01 14.5312 101.016V67.2656H22.0312C22.0312 70.2493 23.2165 73.1108 25.3263 75.2206C27.4361 77.3304 30.2976 78.5156 33.2812 78.5156C36.2649 78.5156 39.1264 77.3304 41.2362 75.2206C43.346 73.1108 44.5312 70.2493 44.5312 67.2656H52.0312V79.5281C52.0313 80.1883 52.2057 80.8369 52.5367 81.4081C52.8677 81.9793 53.3437 82.453 53.9165 82.7813C54.4894 83.1096 55.1387 83.2809 55.7989 83.2778C56.4591 83.2747 57.1068 83.0973 57.6765 82.7636C58.2467 82.4362 58.893 82.2645 59.5505 82.2656C60.208 82.2668 60.8536 82.4408 61.4227 82.7702C61.9917 83.0997 62.4641 83.5729 62.7926 84.1425C63.121 84.7122 63.2939 85.3581 63.2939 86.0156C63.2939 86.6731 63.121 87.3191 62.7926 87.8887C62.4641 88.4583 61.9917 88.9316 61.4227 89.261C60.8536 89.5904 60.208 89.7645 59.5505 89.7656C58.893 89.7668 58.2467 89.595 57.6765 89.2676C57.1066 88.9351 56.4591 88.7583 55.7993 88.7551C55.1394 88.7518 54.4903 88.9223 53.9171 89.2493ZM97.0312 101.016C97.03 102.01 96.6345 102.963 95.9315 103.666C95.2285 104.369 94.2754 104.764 93.2812 104.766H59.5312V97.2656C62.5149 97.2656 65.3764 96.0804 67.4862 93.9706C69.596 91.8608 70.7812 88.9993 70.7812 86.0156C70.7812 83.0319 69.596 80.1705 67.4862 78.0607C65.3764 75.9509 62.5149 74.7656 59.5312 74.7656V67.2656H71.7938C72.454 67.2656 73.1025 67.0912 73.6737 66.7602C74.2449 66.4291 74.7186 65.9531 75.0469 65.3803C75.3752 64.8075 75.5465 64.1582 75.5434 63.498C75.5403 62.8378 75.3629 62.1901 75.0292 61.6204C74.7018 61.0502 74.5301 60.4039 74.5313 59.7464C74.5324 59.0889 74.7064 58.4432 75.0359 57.8742C75.3653 57.3052 75.8385 56.8327 76.4082 56.5043C76.9778 56.1759 77.6237 56.003 78.2812 56.003C78.9388 56.003 79.5847 56.1759 80.1543 56.5043C80.724 56.8327 81.1972 57.3052 81.5266 57.8742C81.8561 58.4432 82.0301 59.0889 82.0312 59.7464C82.0324 60.4039 81.8607 61.0502 81.5333 61.6204C81.1996 62.1901 81.0222 62.8378 81.0191 63.498C81.016 64.1582 81.1873 64.8075 81.5156 65.3803C81.8439 65.9531 82.3176 66.4291 82.8888 66.7602C83.46 67.0912 84.1085 67.2656 84.7687 67.2656H97.0312V101.016Z" fill="#D50000"/>
</svg>
