<svg width="100" height="100" viewBox="0 0 100 100" fill="none" xmlns="http://www.w3.org/2000/svg">
<g clip-path="url(#clip0_963_13177)">
<path d="M93.775 57.3291C92.2327 55.1973 91.4024 52.6332 91.4024 50.002C91.4024 47.3708 92.2327 44.8067 93.775 42.675L96.9583 38.2791C97.3441 37.7472 97.5986 37.1316 97.7011 36.4826C97.8035 35.8336 97.751 35.1695 97.5479 34.5446C97.3448 33.9198 96.9967 33.3518 96.5322 32.8871C96.0676 32.4224 95.4998 32.0742 94.875 31.8708L89.7542 30.2041C87.2456 29.3918 85.059 27.8053 83.5085 25.6724C81.9581 23.5396 81.1236 20.9701 81.125 18.3333V12.9166C81.1252 12.2597 80.9701 11.6121 80.6723 11.0266C80.3745 10.441 79.9425 9.93422 79.4115 9.54747C78.8805 9.16071 78.2656 8.90498 77.617 8.80114C76.9684 8.6973 76.3044 8.74829 75.6792 8.94996L70.4917 10.6166C67.9866 11.4239 65.2907 11.4199 62.7881 10.6051C60.2854 9.79034 58.1038 8.20644 56.5542 6.07913L53.3667 1.71246C52.9617 1.2091 52.4491 0.802949 51.8665 0.523892C51.2838 0.244835 50.646 0.0999756 50 0.0999756C49.354 0.0999756 48.7162 0.244835 48.1336 0.523892C47.5509 0.802949 47.0383 1.2091 46.6333 1.71246L43.4458 6.08746C41.8962 8.21478 39.7146 9.79868 37.212 10.6134C34.7093 11.4282 32.0134 11.4322 29.5083 10.625L24.3208 8.95829C23.6963 8.75684 23.0331 8.70573 22.3851 8.80914C21.7371 8.91254 21.1227 9.16753 20.5919 9.55334C20.0611 9.93916 19.6289 10.4449 19.3306 11.0293C19.0322 11.6138 18.8761 12.2604 18.875 12.9166V18.3333C18.8764 20.9701 18.0419 23.5396 16.4915 25.6724C14.941 27.8053 12.7545 29.3918 10.2458 30.2041L5.12501 31.8708C4.50021 32.0742 3.93236 32.4224 3.46783 32.8871C3.0033 33.3518 2.65525 33.9198 2.45211 34.5446C2.24897 35.1695 2.19648 35.8336 2.29894 36.4826C2.40141 37.1316 2.65591 37.7472 3.04167 38.2791L6.22501 42.6708C7.76733 44.8026 8.59763 47.3667 8.59763 49.9979C8.59763 52.6291 7.76733 55.1932 6.22501 57.325L3.04167 61.7208C2.65591 62.2527 2.40141 62.8683 2.29894 63.5173C2.19648 64.1663 2.24897 64.8304 2.45211 65.4553C2.65525 66.0801 3.0033 66.6481 3.46783 67.1128C3.93236 67.5775 4.50021 67.9258 5.12501 68.1291L10.2458 69.7958C12.7545 70.6081 14.941 72.1946 16.4915 74.3275C18.0419 76.4604 18.8764 79.0298 18.875 81.6666V87.0833C18.875 87.7408 19.0307 88.389 19.3292 88.9748C19.6278 89.5607 20.0607 90.0675 20.5926 90.454C21.1246 90.8405 21.7405 91.0955 22.3899 91.1984C23.0393 91.3013 23.7038 91.249 24.3292 91.0458L29.4792 89.3791C31.9892 88.5563 34.6958 88.5529 37.2079 89.3693C39.72 90.1857 41.9074 91.7796 43.4542 93.9208L46.6292 98.2875C47.0157 98.8194 47.5226 99.2523 48.1084 99.5508C48.6943 99.8493 49.3425 100.005 50 100.005C50.6575 100.005 51.3057 99.8493 51.8916 99.5508C52.4774 99.2523 52.9843 98.8194 53.3708 98.2875L56.5458 93.9208C58.0935 91.7806 60.281 90.1875 62.7928 89.3712C65.3046 88.5549 68.0107 88.5577 70.5208 89.3791L75.6708 91.0458C76.2962 91.249 76.9607 91.3013 77.6101 91.1984C78.2596 91.0955 78.8754 90.8405 79.4074 90.454C79.9393 90.0675 80.3723 89.5607 80.6708 88.9748C80.9693 88.389 81.125 87.7408 81.125 87.0833V81.6666C81.1201 79.0269 81.953 76.4538 83.5036 74.3176C85.0543 72.1813 87.2428 70.5923 89.7542 69.7791L94.875 68.1125C95.4998 67.9091 96.0676 67.5608 96.5322 67.0961C96.9967 66.6314 97.3448 66.0635 97.5479 65.4386C97.751 64.8137 97.8035 64.1497 97.7011 63.5006C97.5986 62.8516 97.3441 62.236 96.9583 61.7041L93.775 57.3291ZM86.8583 61.9791C82.8023 63.3631 79.2734 65.9675 76.7551 69.4353C74.2369 72.9031 72.8525 77.0647 72.7917 81.35C68.6934 80.0807 64.3029 80.1105 60.2223 81.4354C56.1417 82.7603 52.571 85.3153 50 88.75C48.0666 86.164 45.557 84.0644 42.6704 82.6178C39.7837 81.1713 36.5996 80.4176 33.3708 80.4166C31.2819 80.4181 29.2049 80.7313 27.2083 81.3458C27.1469 77.0607 25.7623 72.8993 23.2441 69.4316C20.726 65.964 17.1974 63.3595 13.1417 61.975C15.6123 58.469 16.9385 54.2848 16.9385 49.9958C16.9385 45.7067 15.6123 41.5226 13.1417 38.0166C17.1987 36.6316 20.7282 34.0259 23.2465 30.5565C25.7648 27.0872 27.1486 22.924 27.2083 18.6375C31.3054 19.9068 35.6947 19.8783 39.775 18.5558C43.8552 17.2332 47.4266 14.6814 50 11.25C52.5714 14.6841 56.1421 17.2388 60.2226 18.5636C64.303 19.8885 68.6934 19.9186 72.7917 18.65C72.8506 22.9372 74.234 27.1013 76.7523 30.5715C79.2706 34.0417 82.8006 36.648 86.8583 38.0333C84.3905 41.538 83.0659 45.7198 83.0659 50.0062C83.0659 54.2927 84.3905 58.4744 86.8583 61.9791Z" fill="#D50000"/>
<path d="M63.7208 38.7208L45.8333 56.6083L36.2792 47.0541C35.8948 46.6562 35.435 46.3387 34.9267 46.1204C34.4183 45.902 33.8716 45.787 33.3184 45.7822C32.7651 45.7774 32.2164 45.8829 31.7044 46.0924C31.1923 46.3019 30.7271 46.6112 30.3359 47.0025C29.9446 47.3937 29.6353 47.8589 29.4258 48.371C29.2163 48.883 29.1108 49.4317 29.1156 49.9849C29.1204 50.5382 29.2354 51.0849 29.4538 51.5933C29.6721 52.1016 29.9896 52.5614 30.3875 52.9458L42.8875 65.4458C43.6689 66.2269 44.7285 66.6657 45.8333 66.6657C46.9382 66.6657 47.9978 66.2269 48.7792 65.4458L69.6125 44.6124C70.3715 43.8266 70.7915 42.7741 70.782 41.6816C70.7725 40.5891 70.3343 39.5441 69.5618 38.7715C68.7892 37.999 67.7442 37.5608 66.6517 37.5513C65.5592 37.5418 64.5067 37.9618 63.7208 38.7208Z" fill="#D50000"/>
</g>
<defs>
<clipPath id="clip0_963_13177">
<rect width="100" height="100" fill="white"/>
</clipPath>
</defs>
</svg>
