<svg width="131" height="121" viewBox="0 0 131 121" fill="none" xmlns="http://www.w3.org/2000/svg">
<path d="M30.3157 79.9075L30.2111 79.5429C29.4673 77.3334 30.2046 74.926 31.1367 72.8755C29.6686 71.4221 28.109 70.1632 26.394 68.965L25.994 69.155C25.0712 69.6069 22.9908 69.7692 21.9234 69.4777L21.9401 69.3948C22.132 69.2641 22.3144 69.3912 22.4775 69.2598L22.3244 68.9808C21.7627 68.0729 20.8615 68.2499 19.8686 68.0581L13.407 66.746C10.6323 66.0588 11.5987 63.6189 11.8855 61.7304L16.2268 31.8665C16.7401 27.3294 16.7537 22.7754 21.6579 20.2265C25.132 18.4209 29.4205 18.7544 33.1194 19.7191C37.8301 20.948 45.8196 25.438 45.1099 30.5444C44.945 31.7315 44.2722 31.7797 45.4993 32.4485C48.8817 34.2925 52.8766 34.2869 56.5485 33.266L61.9953 31.5492C66.8563 30.2172 71.4638 29.9995 76.3075 31.3694C78.6014 32.0182 80.9334 33.1859 83.3693 33.2006C85.6415 33.214 85.9326 32.4509 86.9912 30.6935L86.9679 30.4212C86.8391 28.0717 88.5498 25.2734 90.2148 23.6032C93.7257 20.0816 99.2592 17.6558 104.404 17.4735C109.274 17.0239 114.217 19.2944 115.908 23.7254C116.494 25.2603 116.547 26.8644 116.68 28.469L119.886 60.7057C120.036 63.604 118.691 63.5469 115.955 64.1594C113.86 64.6284 111.716 65.0208 109.657 65.6082C107.059 66.3492 107.905 67.4313 104.965 66.0217C103.705 66.8945 102.816 68.2717 101.647 69.2634C101.467 69.4166 101.714 69.6432 101.799 69.8309C103.225 73.0014 103.337 77.2479 99.9951 79.4298C99.4278 79.8001 98.79 80.0656 98.1666 80.3442L98.118 80.6979C97.6547 83.5274 95.545 86.6418 92.4039 87.4462C91.7373 87.617 90.9248 87.4257 90.5929 87.9464L90.1021 88.6831C88.1198 91.5012 85.1698 92.5792 81.57 92.0737C81.1967 92.8062 80.4051 93.5347 79.799 94.1244C76.9085 96.9365 72.3957 98.1824 68.293 97.291L66.6131 96.8484C66.0826 96.6963 66.2152 96.662 65.7933 96.9783C63.6753 98.5664 60.6297 99.9974 57.8932 100.051C53.0594 100.146 49.6542 96.9584 49.6075 92.5752L48.51 92.9444C44.4331 94.037 40.7021 91.7386 39.5156 88.1124L39.0452 86.3984C38.9079 85.9704 38.9764 85.927 38.5165 85.835L37.4688 85.6156C34.0339 84.8069 31.3965 83.2002 30.3157 79.9075ZM104.416 21.9376L111.046 34.7345C111.313 35.2715 111.558 35.8501 111.897 36.3505L110.83 29.4991C110.103 24.8696 110.011 22.4763 104.416 21.9376ZM26.112 23.4277C21.4509 24.1 22.1269 27.8502 21.7121 31.1116L21.1408 34.8367C21.0691 35.296 20.9267 35.8184 20.9366 36.2793L21.3226 35.467L26.4921 24.9858C27.0405 23.8415 27.6406 23.3527 26.112 23.4277ZM99.1475 23.6152L92.2629 27.8283C92.5997 30.3753 93.8658 32.7584 95.0177 35.0681L104.357 53.938C105.544 56.3549 106.882 58.7463 107.909 61.2236L111.422 60.2583C112.479 59.9891 113.555 59.7024 114.638 59.5364C114.422 54.9892 113.107 50.7211 111.129 46.589L102.37 29.333C101.397 27.4031 100.436 25.4617 99.2927 23.6109L99.1475 23.6152ZM32.5379 24.3601L20.2007 49.9432C19.0773 52.1936 18.8144 52.3647 18.3803 54.9157L17.409 61.3188C17.377 61.5828 17.2857 61.9409 17.3358 62.1984L23.6985 63.7209L24.0416 63.044L39.2494 30.8997C39.4665 30.4482 39.8431 29.812 39.8792 29.315C38.5729 27.3059 34.8405 25.0392 32.5379 24.3601ZM69.0015 35.0161C64.5577 35.3433 62.3575 36.0894 58.493 37.6917C56.9025 38.3514 56.228 38.4886 55.4961 39.995C54.6627 41.7102 54.671 43.6467 54.4366 45.4841L53.8685 48.8647C53.669 49.8146 53.4577 50.7847 53.1661 51.7143L52.4825 53.6962C54.4352 52.7261 56.517 50.1564 57.6787 48.5039C58.7599 46.9662 59.4826 45.5463 61.1428 44.4757L61.1539 44.4003C61.2579 43.7516 61.6152 43.2871 62.182 42.9052C66.0194 40.319 70.492 41.8027 73.6876 44.4378L76.9778 47.2036L86.4739 54.2103C90.575 57.3417 95.5597 61.4557 98.6894 65.4614L98.7684 65.3752C99.4113 64.6792 100.149 63.9879 100.899 63.3907C101.266 63.0976 101.977 62.7303 102.25 62.3864L100.908 59.9714L90.2677 38.8722C89.8592 38.0919 89.4537 37.1617 88.8752 36.4784C83.4855 39.9657 77.9954 35.7849 72.5549 35.1239C71.3681 34.9799 70.1948 34.9996 69.0015 35.0161ZM43.0305 36.3423L29.1839 64.9974L34.2102 68.9834C35.2559 68.5344 36.1834 67.8444 37.1923 67.3274C42.1882 64.7673 48.1903 64.3342 50.8917 69.7653C51.3467 70.6801 51.3302 71.5647 51.2733 72.5514C52.7624 72.1149 54.633 71.8657 56.1372 72.3974C60.5291 73.9497 61.2793 77.2064 60.5212 81.1421C62.8157 81.0875 64.9989 81.4045 66.7348 82.9244C70.1126 85.8822 69.7916 89.2812 68.0484 92.7669C72.4723 93.5002 74.3489 93.0425 77.0741 89.7601L65.7354 79.7022C64.3788 78.5236 62.03 76.6355 63.8344 74.8555C65.9178 72.8004 67.4963 75.0719 68.8766 76.2596L79.5037 85.7127C80.1583 86.2904 80.8837 87.0117 81.684 87.4081C82.7279 87.9251 85.301 87.8844 85.2543 86.3489C85.2253 85.3927 76.9967 78.3239 75.963 77.4761L74.5809 76.3874C73.9665 75.9447 73.2234 75.5112 72.8111 74.8848C71.6919 73.1836 72.9157 71.3529 75.1352 71.4003L75.2238 71.4179C77.4454 71.8874 84.9653 78.9597 86.5456 80.5531L88.029 82.1409C88.9872 83.218 89.5862 84.1077 91.1774 83.1944C91.9304 82.7622 92.6467 82.0295 92.8473 81.2129C93.3917 78.9971 84.1802 71.933 82.4577 70.7341L79.8593 69.0057C79.2963 68.6264 78.682 68.2314 78.2264 67.7422C76.7696 66.1781 78.476 63.7831 80.6479 64.2712C82.6566 64.7229 91.2278 71.2934 92.7962 72.6301C93.8467 73.5256 94.765 74.6647 95.8887 75.4642C96.6021 74.905 97.6297 74.2623 97.7392 73.3329C97.9356 71.6645 95.1223 68.5417 94.0023 67.3263L90.8766 64.2412C87.0134 60.5889 82.8345 57.3547 78.552 54.1357L72.7776 49.6809C69.3236 46.667 68.8715 45.4507 65.1411 48.6202C64.5931 49.0859 64.2457 49.6497 63.8244 50.2089L61.9376 52.6119C59.1493 55.8991 53.3208 60.9303 48.5021 60.7705C46.1808 60.6937 44.0967 59.3862 44.242 57.0581C44.3059 56.0321 45.079 55.1409 45.6486 54.3016L46.8229 52.4144C48.3412 49.6927 49.161 46.8813 49.4897 43.8333C49.679 42.0768 49.7414 40.2731 50.2807 38.5707C49.9764 38.4513 49.5707 38.4226 49.2433 38.366C47.0384 37.9842 45.0729 37.1814 43.0305 36.3423ZM42.4083 70.2987C39.4972 70.9023 34.5277 76.0402 35.2813 78.8819C35.5452 79.8775 36.5876 80.9221 37.7925 80.564L38.1561 80.4346C39.6871 79.6469 45.01 75.0072 45.4475 73.4437C45.9515 71.6433 44.2373 70.2266 42.4083 70.2987ZM53.0968 76.6289C51.0661 76.9304 49.7777 78.0123 48.4501 79.3784C46.699 81.1803 43.7014 84.4809 44.1172 86.9152C44.3149 88.0726 45.3382 88.6314 46.5296 88.4251C49.2004 87.4212 53.7551 82.6966 54.9422 80.0675C55.761 78.2536 55.8503 76.3304 53.0968 76.6289ZM61.5511 85.72C58.4089 86.0214 54.5904 90.4535 54.9064 93.1992C55.0571 94.5086 55.6769 95.1078 57.0567 95.1532C58.8367 94.7195 61.7081 91.9694 62.6867 90.4353C63.574 89.0446 64.566 85.394 61.5511 85.72Z" fill="#D50000"/>
</svg>
