<svg width="101" height="100" viewBox="0 0 101 100" fill="none" xmlns="http://www.w3.org/2000/svg">
<g clip-path="url(#clip0_963_13167)">
<path d="M99.3125 62.5L83.6875 31.25H88C88.8288 31.25 89.6237 30.9208 90.2097 30.3347C90.7958 29.7487 91.125 28.9538 91.125 28.125C91.125 27.2962 90.7958 26.5013 90.2097 25.9153C89.6237 25.3292 88.8288 25 88 25H83.0625C79.7053 21.3432 75.6598 18.3844 71.1576 16.2931C66.6554 14.2018 61.7849 13.019 56.825 12.8125L56.75 12.5C56.75 10.8424 56.0915 9.25268 54.9194 8.08058C53.7473 6.90848 52.1576 6.25 50.5 6.25C48.8424 6.25 47.2527 6.90848 46.0806 8.08058C44.9085 9.25268 44.25 10.8424 44.25 12.5V12.8125C34.1487 13.2312 24.6162 17.6013 17.7062 24.9813L13 25C12.1712 25 11.3763 25.3292 10.7903 25.9153C10.2042 26.5013 9.875 27.2962 9.875 28.125C9.875 28.9538 10.2042 29.7487 10.7903 30.3347C11.3763 30.9208 12.1712 31.25 13 31.25H17.3125L1.6875 62.5H0.5C0.5 69.375 8.875 75 19.25 75C29.625 75 38 69.375 38 62.5H36.8125L20.875 30.6875C21.2671 30.4518 21.6056 30.1367 21.8687 29.7625C24.6333 26.5151 28.053 23.8887 31.9036 22.0555C35.7542 20.2222 39.9489 19.2236 44.2125 19.125L44.25 87.5H38V93.75H25.5V100H75.5V93.75H63V87.5H56.75V19.125C60.9648 19.2088 65.1124 20.1969 68.9122 22.0224C72.7121 23.848 76.0755 26.4683 78.775 29.7062C79.0684 30.1927 79.4843 30.5936 79.9812 30.8688L64.1875 62.5H63C63 69.375 71.375 75 81.75 75C92.125 75 100.5 69.375 100.5 62.5H99.3125ZM31.75 62.5H6.75L19.25 37.875L31.75 62.5ZM69.25 62.5L81.75 37.875L94.25 62.5H69.25Z" fill="#D50000"/>
</g>
<defs>
<clipPath id="clip0_963_13167">
<rect width="100" height="100" fill="white" transform="translate(0.5)"/>
</clipPath>
</defs>
</svg>
