<svg width="121" height="121" viewBox="0 0 121 121" fill="none" xmlns="http://www.w3.org/2000/svg">
<path d="M101.281 60.2656H90.0312C90.0312 57.2819 88.846 54.4205 86.7362 52.3107C84.6264 50.2009 81.7649 49.0156 78.7812 49.0156C75.7976 49.0156 72.9361 50.2009 70.8263 52.3107C68.7165 54.4205 67.5312 57.2819 67.5312 60.2656H60.0312V48.0031C60.0312 47.3429 59.8568 46.6944 59.5258 46.1232C59.1948 45.5519 58.7188 45.0782 58.146 44.7499C57.5731 44.4216 56.9238 44.2504 56.2636 44.2535C55.6034 44.2566 54.9557 44.4339 54.386 44.7676C53.8158 45.095 53.1695 45.2668 52.512 45.2656C51.8545 45.2645 51.2089 45.0904 50.6398 44.761C50.0708 44.4316 49.5984 43.9583 49.27 43.3887C48.9415 42.8191 48.7687 42.1731 48.7687 41.5156C48.7687 40.8581 48.9415 40.2122 49.27 39.6425C49.5984 39.0729 50.0708 38.5997 50.6398 38.2702C51.2089 37.9408 51.8545 37.7668 52.512 37.7656C53.1695 37.7645 53.8158 37.9362 54.386 38.2636C54.9557 38.5973 55.6034 38.7747 56.2636 38.7778C56.9238 38.7809 57.5731 38.6096 58.146 38.2813C58.7188 37.953 59.1948 37.4793 59.5258 36.9081C59.8568 36.3369 60.0312 35.6883 60.0312 35.0281V19.0156C60.0312 18.0211 59.6362 17.0672 58.9329 16.364C58.2296 15.6607 57.2758 15.2656 56.2812 15.2656H18.7812C15.7986 15.2689 12.939 16.4552 10.8299 18.5643C8.72084 20.6734 7.53453 23.5329 7.53125 26.5156V101.516C7.53453 104.498 8.72084 107.358 10.8299 109.467C12.939 111.576 15.7986 112.762 18.7812 112.766H93.7812C96.7639 112.762 99.6235 111.576 101.733 109.467C103.842 107.358 105.028 104.498 105.031 101.516V64.0156C105.031 63.0211 104.636 62.0672 103.933 61.364C103.23 60.6607 102.276 60.2656 101.281 60.2656ZM15.0312 26.5156C15.0325 25.5215 15.428 24.5684 16.131 23.8654C16.834 23.1624 17.7871 22.7669 18.7812 22.7656H52.5312V30.2656C49.5476 30.2656 46.6861 31.4509 44.5763 33.5607C42.4665 35.6705 41.2812 38.5319 41.2812 41.5156C41.2812 44.4993 42.4665 47.3608 44.5763 49.4706C46.6861 51.5804 49.5476 52.7656 52.5312 52.7656V60.2656H40.2687C39.6085 60.2657 38.96 60.44 38.3888 60.7711C37.8176 61.1021 37.3439 61.5781 37.0156 62.1509C36.6873 62.7237 36.516 63.3731 36.5191 64.0333C36.5222 64.6935 36.6996 65.3412 37.0332 65.9109C37.3607 66.4811 37.5324 67.1273 37.5312 67.7848C37.5301 68.4424 37.3561 69.088 37.0266 69.657C36.6972 70.2261 36.224 70.6985 35.6543 71.0269C35.0847 71.3553 34.4388 71.5282 33.7812 71.5282C33.1237 71.5282 32.4778 71.3553 31.9082 71.0269C31.3385 70.6985 30.8653 70.2261 30.5359 69.657C30.2064 69.088 30.0324 68.4424 30.0313 67.7848C30.0301 67.1273 30.2018 66.4811 30.5293 65.9109C30.8629 65.3412 31.0403 64.6935 31.0434 64.0333C31.0465 63.3731 30.8752 62.7237 30.5469 62.1509C30.2186 61.5781 29.7449 61.1021 29.1737 60.7711C28.6025 60.44 27.954 60.2657 27.2938 60.2656H15.0312V26.5156ZM54.4171 89.7493C53.8441 90.0775 53.3679 90.5513 53.0368 91.1227C52.7056 91.694 52.5312 92.3427 52.5312 93.0031V105.266H18.7812C17.7871 105.264 16.834 104.869 16.131 104.166C15.428 103.463 15.0325 102.51 15.0312 101.516V67.7656H22.5312C22.5312 70.7493 23.7165 73.6108 25.8263 75.7206C27.9361 77.8304 30.7976 79.0156 33.7812 79.0156C36.7649 79.0156 39.6264 77.8304 41.7362 75.7206C43.846 73.6108 45.0312 70.7493 45.0312 67.7656H52.5312V80.0281C52.5313 80.6883 52.7057 81.3369 53.0367 81.9081C53.3677 82.4793 53.8437 82.953 54.4165 83.2813C54.9894 83.6096 55.6387 83.7809 56.2989 83.7778C56.9591 83.7747 57.6068 83.5973 58.1765 83.2636C58.7467 82.9362 59.393 82.7645 60.0505 82.7656C60.708 82.7668 61.3536 82.9408 61.9227 83.2702C62.4917 83.5997 62.9641 84.0729 63.2926 84.6425C63.621 85.2122 63.7939 85.8581 63.7939 86.5156C63.7939 87.1731 63.621 87.8191 63.2926 88.3887C62.9641 88.9583 62.4917 89.4316 61.9227 89.761C61.3536 90.0904 60.708 90.2645 60.0505 90.2656C59.393 90.2668 58.7467 90.095 58.1765 89.7676C57.6066 89.4351 56.9591 89.2583 56.2993 89.2551C55.6394 89.2518 54.9903 89.4223 54.4171 89.7493ZM97.5312 101.516C97.53 102.51 97.1345 103.463 96.4315 104.166C95.7285 104.869 94.7754 105.264 93.7812 105.266H60.0312V97.7656C63.0149 97.7656 65.8764 96.5804 67.9862 94.4706C70.096 92.3608 71.2812 89.4993 71.2812 86.5156C71.2812 83.5319 70.096 80.6705 67.9862 78.5607C65.8764 76.4509 63.0149 75.2656 60.0312 75.2656V67.7656H72.2938C72.954 67.7656 73.6025 67.5912 74.1737 67.2602C74.7449 66.9291 75.2186 66.4531 75.5469 65.8803C75.8752 65.3075 76.0465 64.6582 76.0434 63.998C76.0403 63.3378 75.8629 62.6901 75.5292 62.1204C75.2018 61.5502 75.0301 60.9039 75.0313 60.2464C75.0324 59.5889 75.2064 58.9432 75.5359 58.3742C75.8653 57.8052 76.3385 57.3327 76.9082 57.0043C77.4778 56.6759 78.1237 56.503 78.7812 56.503C79.4388 56.503 80.0847 56.6759 80.6543 57.0043C81.224 57.3327 81.6972 57.8052 82.0266 58.3742C82.3561 58.9432 82.5301 59.5889 82.5312 60.2464C82.5324 60.9039 82.3607 61.5502 82.0333 62.1204C81.6996 62.6901 81.5222 63.3378 81.5191 63.998C81.516 64.6582 81.6873 65.3075 82.0156 65.8803C82.3439 66.4531 82.8176 66.9291 83.3888 67.2602C83.96 67.5912 84.6085 67.7656 85.2687 67.7656H97.5312V101.516Z" fill="#D50000"/>
</svg>
