<svg width="24" height="24" viewBox="0 0 24 24" fill="none" xmlns="http://www.w3.org/2000/svg">
<path d="M23.8757 11.9778C23.8757 5.65768 18.7456 0.53418 12.4255 0.53418C6.10543 0.53418 0.981934 5.65768 0.981934 11.9778C0.981934 18.2979 6.10543 23.4214 12.4255 23.4214C18.7456 23.4214 23.8691 18.2979 23.8691 11.9778H23.8757Z" fill="white"/>
<path d="M9.14611 7.75977H15.7108C17.0793 7.75977 18.1899 8.87041 18.1899 10.2389V13.7295C18.1899 15.0979 17.0793 16.2086 15.7108 16.2086H9.14611C7.77764 16.2086 6.66699 15.0979 6.66699 13.7295V10.2389C6.66699 8.87041 7.77764 7.75977 9.14611 7.75977Z" fill="#0A2463"/>
<path d="M14.772 12.0032L10.9244 14.079C10.7988 14.1517 10.6401 14.0526 10.6401 13.9071V9.73561C10.6401 9.59017 10.7922 9.49761 10.9244 9.56372L14.772 11.6594C14.9042 11.7321 14.9042 11.9238 14.772 11.9966V12.0032Z" fill="white"/>
</svg>
